<svg baseProfile="full" height="301.0" version="1.1" width="820" xmlns="http://www.w3.org/2000/svg" xmlns:ev="http://www.w3.org/2001/xml-events" xmlns:xlink="http://www.w3.org/1999/xlink"><defs><marker id="id1" markerHeight="15" markerWidth="15" orient="auto" refX="0" refY="0" viewBox="-5 -5 10 10"><polygon fill="#222222" points="5,0 0,2 0,-2" /></marker></defs><rect fill="rgb(83%,76%,71%)" height="301.0" stroke="black" width="820" x="0" y="0" /><text dy="15" style="font-size:12px;" x="0" y="0">main (node6)</text><text dy="27" style="font-size:12px;" x="0" y="0" /><rect fill="#aa9999" height="20" stroke="grey" width="816" x="2" y="279.0" /><rect fill="rgb(74%,77%,83%)" height="82.0" stroke="black" width="140" x="20" y="177.0" /><text dy="15" style="font-size:12px;" x="20" y="177.0">ArrayInit (node5)</text><text dy="27" style="font-size:12px;" x="20" y="177.0" /><rect fill="#aa9999" height="20" stroke="grey" width="136" x="22" y="237.0" /><text dy="15" style="font-size:8px;" x="22" y="237.0">initialized array</text><rect fill="#9999aa" height="20" stroke="grey" width="27" x="22" y="212.0" /><text dy="15" style="font-size:8px;" x="22" y="212.0">item#0</text><rect fill="#9999aa" height="20" stroke="grey" width="27" x="49" y="212.0" /><text dy="15" style="font-size:8px;" x="49" y="212.0">item#1</text><rect fill="#9999aa" height="20" stroke="grey" width="27" x="76" y="212.0" /><text dy="15" style="font-size:8px;" x="76" y="212.0">item#2</text><rect fill="#9999aa" height="20" stroke="grey" width="27" x="103" y="212.0" /><text dy="15" style="font-size:8px;" x="103" y="212.0">item#3</text><rect fill="#9999aa" height="20" stroke="grey" width="27" x="130" y="212.0" /><text dy="15" style="font-size:8px;" x="130" y="212.0">item#4</text><rect fill="rgb(69%,81%,80%)" height="82.0" stroke="black" width="140" x="20" y="75.0" /><text dy="15" style="font-size:12px;" x="20" y="75.0">Literal (node0)</text><text dy="27" style="font-size:12px;" x="20" y="75.0">value: 1</text><rect fill="#aa9999" height="20" stroke="grey" width="136" x="22" y="135.0" /><rect fill="rgb(73%,75%,82%)" height="82.0" stroke="black" width="140" x="180" y="75.0" /><text dy="15" style="font-size:12px;" x="180" y="75.0">Literal (node1)</text><text dy="27" style="font-size:12px;" x="180" y="75.0">value: 2</text><rect fill="#aa9999" height="20" stroke="grey" width="136" x="182" y="135.0" /><rect fill="rgb(71%,71%,84%)" height="82.0" stroke="black" width="140" x="340" y="75.0" /><text dy="15" style="font-size:12px;" x="340" y="75.0">Literal (node2)</text><text dy="27" style="font-size:12px;" x="340" y="75.0">value: 3</text><rect fill="#aa9999" height="20" stroke="grey" width="136" x="342" y="135.0" /><rect fill="rgb(71%,83%,84%)" height="82.0" stroke="black" width="140" x="500" y="75.0" /><text dy="15" style="font-size:12px;" x="500" y="75.0">Literal (node3)</text><text dy="27" style="font-size:12px;" x="500" y="75.0">value: 4</text><rect fill="#aa9999" height="20" stroke="grey" width="136" x="502" y="135.0" /><rect fill="rgb(72%,77%,77%)" height="82.0" stroke="black" width="140" x="660" y="75.0" /><text dy="15" style="font-size:12px;" x="660" y="75.0">Literal (node4)</text><text dy="27" style="font-size:12px;" x="660" y="75.0">value: 5</text><rect fill="#aa9999" height="20" stroke="grey" width="136" x="662" y="135.0" /><line fill="none" marker-end="url(#id1)" stroke="#222222" x1="90.0" x2="35.5" y1="155.0" y2="212.0" /><line fill="none" marker-end="url(#id1)" stroke="#222222" x1="250.0" x2="62.5" y1="155.0" y2="212.0" /><line fill="none" marker-end="url(#id1)" stroke="#222222" x1="410.0" x2="89.5" y1="155.0" y2="212.0" /><line fill="none" marker-end="url(#id1)" stroke="#222222" x1="570.0" x2="116.5" y1="155.0" y2="212.0" /><line fill="none" marker-end="url(#id1)" stroke="#222222" x1="730.0" x2="143.5" y1="155.0" y2="212.0" /><line fill="none" marker-end="url(#id1)" stroke="#222222" x1="90.0" x2="410.0" y1="257.0" y2="279.0" /></svg>
