<svg baseProfile="full" height="637.0" version="1.1" width="1180" xmlns="http://www.w3.org/2000/svg" xmlns:ev="http://www.w3.org/2001/xml-events" xmlns:xlink="http://www.w3.org/1999/xlink"><defs><marker id="id1" markerHeight="15" markerWidth="15" orient="auto" refX="0" refY="0" viewBox="-5 -5 10 10"><polygon fill="#222222" points="5,0 0,2 0,-2" /></marker></defs><rect fill="rgb(70%,70%,69%)" height="637.0" stroke="black" width="1180" x="0" y="0" /><text dy="15" style="font-size:12px;" x="0" y="0">main (node16)</text><text dy="27" style="font-size:12px;" x="0" y="0" /><rect fill="#aa9999" height="20" stroke="grey" width="1176" x="2" y="615.0" /><rect fill="#9999aa" height="20" stroke="grey" width="392" x="2" y="35.0" /><text dy="15" style="font-size:8px;" x="2" y="35.0">N</text><rect fill="#9999aa" height="20" stroke="grey" width="392" x="394" y="35.0" /><text dy="15" style="font-size:8px;" x="394" y="35.0">T</text><rect fill="#9999aa" height="20" stroke="grey" width="392" x="786" y="35.0" /><text dy="15" style="font-size:8px;" x="786" y="35.0">S</text><rect fill="rgb(69%,71%,80%)" height="520.0" stroke="black" width="1140" x="20" y="75.0" /><text dy="15" style="font-size:12px;" x="20" y="75.0">LoopExpression (node15)</text><text dy="27" style="font-size:12px;" x="20" y="75.0" /><rect fill="#aa9999" height="20" stroke="grey" width="1136" x="22" y="573.0" /><text dy="15" style="font-size:8px;" x="22" y="573.0">reduction_0</text><rect fill="#9999aa" height="20" stroke="grey" width="378" x="22" y="110.0" /><text dy="15" style="font-size:8px;" x="22" y="110.0">N</text><rect fill="#9999aa" height="20" stroke="grey" width="378" x="400" y="110.0" /><text dy="15" style="font-size:8px;" x="400" y="110.0">T</text><rect fill="#9999aa" height="20" stroke="grey" width="378" x="778" y="110.0" /><text dy="15" style="font-size:8px;" x="778" y="110.0">S</text><rect fill="rgb(74%,78%,75%)" height="199.0" stroke="black" width="180" x="40" y="150.0" /><text dy="15" style="font-size:12px;" x="40" y="150.0">Init (node1)</text><text dy="27" style="font-size:12px;" x="40" y="150.0" /><rect fill="#aa9999" height="20" stroke="grey" width="58" x="42" y="327.0" /><text dy="15" style="font-size:8px;" x="42" y="327.0">t</text><rect fill="#aa9999" height="20" stroke="grey" width="58" x="100" y="327.0" /><text dy="15" style="font-size:8px;" x="100" y="327.0">s</text><rect fill="#aa9999" height="20" stroke="grey" width="58" x="158" y="327.0" /><text dy="15" style="font-size:8px;" x="158" y="327.0">i</text><rect fill="#9999aa" height="20" stroke="grey" width="58" x="42" y="185.0" /><text dy="15" style="font-size:8px;" x="42" y="185.0">N</text><rect fill="#9999aa" height="20" stroke="grey" width="58" x="100" y="185.0" /><text dy="15" style="font-size:8px;" x="100" y="185.0">T</text><rect fill="#9999aa" height="20" stroke="grey" width="58" x="158" y="185.0" /><text dy="15" style="font-size:8px;" x="158" y="185.0">S</text><rect fill="rgb(73%,75%,71%)" height="82.0" stroke="black" width="140" x="60" y="225.0" /><text dy="15" style="font-size:12px;" x="60" y="225.0">Literal (node0)</text><text dy="27" style="font-size:12px;" x="60" y="225.0">value: 0</text><rect fill="#aa9999" height="20" stroke="grey" width="136" x="62" y="285.0" /><rect fill="rgb(74%,71%,71%)" height="403.0" stroke="black" width="500" x="240" y="150.0" /><text dy="15" style="font-size:12px;" x="240" y="150.0">Body (node12)</text><text dy="27" style="font-size:12px;" x="240" y="150.0" /><rect fill="#aa9999" height="20" stroke="grey" width="496" x="242" y="531.0" /><text dy="15" style="font-size:8px;" x="242" y="531.0">i</text><rect fill="#9999aa" height="20" stroke="grey" width="82" x="242" y="185.0" /><text dy="15" style="font-size:8px;" x="242" y="185.0">t</text><rect fill="#9999aa" height="20" stroke="grey" width="82" x="324" y="185.0" /><text dy="15" style="font-size:8px;" x="324" y="185.0">s</text><rect fill="#9999aa" height="20" stroke="grey" width="82" x="406" y="185.0" /><text dy="15" style="font-size:8px;" x="406" y="185.0">i</text><rect fill="#9999aa" height="20" stroke="grey" width="82" x="488" y="185.0" /><text dy="15" style="font-size:8px;" x="488" y="185.0">N</text><rect fill="#9999aa" height="20" stroke="grey" width="82" x="570" y="185.0" /><text dy="15" style="font-size:8px;" x="570" y="185.0">T</text><rect fill="#9999aa" height="20" stroke="grey" width="82" x="652" y="185.0" /><text dy="15" style="font-size:8px;" x="652" y="185.0">S</text><rect fill="rgb(73%,70%,79%)" height="82.0" stroke="black" width="140" x="260" y="429.0" /><text dy="15" style="font-size:12px;" x="260" y="429.0">Binary (node8)</text><text dy="27" style="font-size:12px;" x="260" y="429.0">operator: +</text><rect fill="#aa9999" height="20" stroke="grey" width="136" x="262" y="489.0" /><text dy="15" style="font-size:8px;" x="262" y="489.0">binary output (+)</text><rect fill="#9999aa" height="20" stroke="grey" width="68" x="262" y="464.0" /><text dy="15" style="font-size:8px;" x="262" y="464.0">left</text><rect fill="#9999aa" height="20" stroke="grey" width="68" x="330" y="464.0" /><text dy="15" style="font-size:8px;" x="330" y="464.0">right</text><rect fill="rgb(74%,78%,84%)" height="82.0" stroke="black" width="140" x="260" y="327.0" /><text dy="15" style="font-size:12px;" x="260" y="327.0">Binary (node6)</text><text dy="27" style="font-size:12px;" x="260" y="327.0">operator: +</text><rect fill="#aa9999" height="20" stroke="grey" width="136" x="262" y="387.0" /><text dy="15" style="font-size:8px;" x="262" y="387.0">binary output (+)</text><rect fill="#9999aa" height="20" stroke="grey" width="68" x="262" y="362.0" /><text dy="15" style="font-size:8px;" x="262" y="362.0">left</text><rect fill="#9999aa" height="20" stroke="grey" width="68" x="330" y="362.0" /><text dy="15" style="font-size:8px;" x="330" y="362.0">right</text><rect fill="rgb(84%,77%,83%)" height="82.0" stroke="black" width="140" x="420" y="327.0" /><text dy="15" style="font-size:12px;" x="420" y="327.0">Binary (node10)</text><text dy="27" style="font-size:12px;" x="420" y="327.0">operator: *</text><rect fill="#aa9999" height="20" stroke="grey" width="136" x="422" y="387.0" /><text dy="15" style="font-size:8px;" x="422" y="387.0">binary output (*)</text><rect fill="#9999aa" height="20" stroke="grey" width="68" x="422" y="362.0" /><text dy="15" style="font-size:8px;" x="422" y="362.0">left</text><rect fill="#9999aa" height="20" stroke="grey" width="68" x="490" y="362.0" /><text dy="15" style="font-size:8px;" x="490" y="362.0">right</text><rect fill="rgb(70%,80%,81%)" height="82.0" stroke="black" width="140" x="260" y="225.0" /><text dy="15" style="font-size:12px;" x="260" y="225.0">OldValue (node5)</text><text dy="27" style="font-size:12px;" x="260" y="225.0" /><rect fill="#aa9999" height="20" stroke="grey" width="136" x="262" y="285.0" /><rect fill="#9999aa" height="20" stroke="grey" width="136" x="262" y="260.0" /><rect fill="rgb(70%,75%,83%)" height="82.0" stroke="black" width="140" x="420" y="225.0" /><text dy="15" style="font-size:12px;" x="420" y="225.0">Binary (node7)</text><text dy="27" style="font-size:12px;" x="420" y="225.0">operator: *</text><rect fill="#aa9999" height="20" stroke="grey" width="136" x="422" y="285.0" /><text dy="15" style="font-size:8px;" x="422" y="285.0">binary output (*)</text><rect fill="#9999aa" height="20" stroke="grey" width="68" x="422" y="260.0" /><text dy="15" style="font-size:8px;" x="422" y="260.0">left</text><rect fill="#9999aa" height="20" stroke="grey" width="68" x="490" y="260.0" /><text dy="15" style="font-size:8px;" x="490" y="260.0">right</text><rect fill="rgb(71%,81%,81%)" height="82.0" stroke="black" width="140" x="580" y="225.0" /><text dy="15" style="font-size:12px;" x="580" y="225.0">Literal (node9)</text><text dy="27" style="font-size:12px;" x="580" y="225.0">value: 2</text><rect fill="#aa9999" height="20" stroke="grey" width="136" x="582" y="285.0" /><rect fill="rgb(80%,72%,81%)" height="403.0" stroke="black" width="180" x="760" y="150.0" /><text dy="15" style="font-size:12px;" x="760" y="150.0">PreCondition (node11)</text><text dy="27" style="font-size:12px;" x="760" y="150.0" /><rect fill="#aa9999" height="20" stroke="grey" width="176" x="762" y="531.0" /><text dy="15" style="font-size:8px;" x="762" y="531.0">output</text><rect fill="#9999aa" height="20" stroke="grey" width="29" x="762" y="185.0" /><text dy="15" style="font-size:8px;" x="762" y="185.0">t</text><rect fill="#9999aa" height="20" stroke="grey" width="29" x="791" y="185.0" /><text dy="15" style="font-size:8px;" x="791" y="185.0">s</text><rect fill="#9999aa" height="20" stroke="grey" width="29" x="820" y="185.0" /><text dy="15" style="font-size:8px;" x="820" y="185.0">i</text><rect fill="#9999aa" height="20" stroke="grey" width="29" x="849" y="185.0" /><text dy="15" style="font-size:8px;" x="849" y="185.0">N</text><rect fill="#9999aa" height="20" stroke="grey" width="29" x="878" y="185.0" /><text dy="15" style="font-size:8px;" x="878" y="185.0">T</text><rect fill="#9999aa" height="20" stroke="grey" width="29" x="907" y="185.0" /><text dy="15" style="font-size:8px;" x="907" y="185.0">S</text><rect fill="rgb(73%,79%,75%)" height="82.0" stroke="black" width="140" x="780" y="429.0" /><text dy="15" style="font-size:12px;" x="780" y="429.0">Binary (node2)</text><text dy="27" style="font-size:12px;" x="780" y="429.0">operator: &lt;=</text><rect fill="#aa9999" height="20" stroke="grey" width="136" x="782" y="489.0" /><text dy="15" style="font-size:8px;" x="782" y="489.0">binary output (&lt;=)</text><rect fill="#9999aa" height="20" stroke="grey" width="68" x="782" y="464.0" /><text dy="15" style="font-size:8px;" x="782" y="464.0">left</text><rect fill="#9999aa" height="20" stroke="grey" width="68" x="850" y="464.0" /><text dy="15" style="font-size:8px;" x="850" y="464.0">right</text><rect fill="rgb(75%,84%,70%)" height="82.0" stroke="black" width="140" x="780" y="327.0" /><text dy="15" style="font-size:12px;" x="780" y="327.0">Binary (node4)</text><text dy="27" style="font-size:12px;" x="780" y="327.0">operator: *</text><rect fill="#aa9999" height="20" stroke="grey" width="136" x="782" y="387.0" /><text dy="15" style="font-size:8px;" x="782" y="387.0">binary output (*)</text><rect fill="#9999aa" height="20" stroke="grey" width="68" x="782" y="362.0" /><text dy="15" style="font-size:8px;" x="782" y="362.0">left</text><rect fill="#9999aa" height="20" stroke="grey" width="68" x="850" y="362.0" /><text dy="15" style="font-size:8px;" x="850" y="362.0">right</text><rect fill="rgb(76%,84%,78%)" height="82.0" stroke="black" width="140" x="780" y="225.0" /><text dy="15" style="font-size:12px;" x="780" y="225.0">Literal (node3)</text><text dy="27" style="font-size:12px;" x="780" y="225.0">value: 2</text><rect fill="#aa9999" height="20" stroke="grey" width="136" x="782" y="285.0" /><rect fill="rgb(73%,72%,72%)" height="301.0" stroke="black" width="180" x="960" y="150.0" /><text dy="15" style="font-size:12px;" x="960" y="150.0">Returns (node14)</text><text dy="27" style="font-size:12px;" x="960" y="150.0" /><rect fill="#aa9999" height="20" stroke="grey" width="176" x="962" y="429.0" /><text dy="15" style="font-size:8px;" x="962" y="429.0">reduction_0</text><rect fill="#9999aa" height="20" stroke="grey" width="29" x="962" y="185.0" /><text dy="15" style="font-size:8px;" x="962" y="185.0">t</text><rect fill="#9999aa" height="20" stroke="grey" width="29" x="991" y="185.0" /><text dy="15" style="font-size:8px;" x="991" y="185.0">s</text><rect fill="#9999aa" height="20" stroke="grey" width="29" x="1020" y="185.0" /><text dy="15" style="font-size:8px;" x="1020" y="185.0">i</text><rect fill="#9999aa" height="20" stroke="grey" width="29" x="1049" y="185.0" /><text dy="15" style="font-size:8px;" x="1049" y="185.0">N</text><rect fill="#9999aa" height="20" stroke="grey" width="29" x="1078" y="185.0" /><text dy="15" style="font-size:8px;" x="1078" y="185.0">T</text><rect fill="#9999aa" height="20" stroke="grey" width="29" x="1107" y="185.0" /><text dy="15" style="font-size:8px;" x="1107" y="185.0">S</text><rect fill="rgb(76%,82%,70%)" height="82.0" stroke="black" width="140" x="980" y="327.0" /><text dy="15" style="font-size:12px;" x="980" y="327.0">Reduction (node13)</text><text dy="27" style="font-size:12px;" x="980" y="327.0">operator: value</text><rect fill="#aa9999" height="20" stroke="grey" width="136" x="982" y="387.0" /><text dy="15" style="font-size:8px;" x="982" y="387.0">reduction output</text><rect fill="#9999aa" height="20" stroke="grey" width="68" x="982" y="362.0" /><text dy="15" style="font-size:8px;" x="982" y="362.0">cond input</text><rect fill="#9999aa" height="20" stroke="grey" width="68" x="1050" y="362.0" /><text dy="15" style="font-size:8px;" x="1050" y="362.0">value input</text><rect fill="rgb(76%,77%,77%)" height="82.0" stroke="black" width="140" x="980" y="225.0" /><text dy="15" style="font-size:12px;" x="980" y="225.0">Literal (node17)</text><text dy="27" style="font-size:12px;" x="980" y="225.0">value: True</text><rect fill="#aa9999" height="20" stroke="grey" width="136" x="982" y="285.0" /><line fill="none" marker-end="url(#id1)" stroke="#222222" x1="129.0" x2="71.0" y1="195.0" y2="337.0" /><line fill="none" marker-end="url(#id1)" stroke="#222222" x1="187.0" x2="129.0" y1="195.0" y2="337.0" /><line fill="none" marker-end="url(#id1)" stroke="#222222" x1="130.0" x2="187.0" y1="305.0" y2="327.0" /><line fill="none" marker-end="url(#id1)" stroke="#222222" x1="447.0" x2="330.0" y1="205.0" y2="260.0" /><line fill="none" marker-end="url(#id1)" stroke="#222222" x1="330.0" x2="296.0" y1="305.0" y2="362.0" /><line fill="none" marker-end="url(#id1)" stroke="#222222" x1="283.0" x2="456.0" y1="205.0" y2="260.0" /><line fill="none" marker-end="url(#id1)" stroke="#222222" x1="365.0" x2="524.0" y1="205.0" y2="260.0" /><line fill="none" marker-end="url(#id1)" stroke="#222222" x1="490.0" x2="364.0" y1="305.0" y2="362.0" /><line fill="none" marker-end="url(#id1)" stroke="#222222" x1="330.0" x2="296.0" y1="407.0" y2="464.0" /><line fill="none" marker-end="url(#id1)" stroke="#222222" x1="650.0" x2="456.0" y1="305.0" y2="362.0" /><line fill="none" marker-end="url(#id1)" stroke="#222222" x1="693.0" x2="524.0" y1="205.0" y2="362.0" /><line fill="none" marker-end="url(#id1)" stroke="#222222" x1="490.0" x2="364.0" y1="407.0" y2="464.0" /><line fill="none" marker-end="url(#id1)" stroke="#222222" x1="330.0" x2="490.0" y1="509.0" y2="531.0" /><line fill="none" marker-end="url(#id1)" stroke="#222222" x1="834.5" x2="816.0" y1="205.0" y2="464.0" /><line fill="none" marker-end="url(#id1)" stroke="#222222" x1="850.0" x2="816.0" y1="305.0" y2="362.0" /><line fill="none" marker-end="url(#id1)" stroke="#222222" x1="863.5" x2="884.0" y1="205.0" y2="362.0" /><line fill="none" marker-end="url(#id1)" stroke="#222222" x1="850.0" x2="884.0" y1="407.0" y2="464.0" /><line fill="none" marker-end="url(#id1)" stroke="#222222" x1="850.0" x2="850.0" y1="509.0" y2="531.0" /><line fill="none" marker-end="url(#id1)" stroke="#222222" x1="1034.5" x2="1084.0" y1="205.0" y2="362.0" /><line fill="none" marker-end="url(#id1)" stroke="#222222" x1="1050.0" x2="1016.0" y1="305.0" y2="362.0" /><line fill="none" marker-end="url(#id1)" stroke="#222222" x1="1050.0" x2="1050.0" y1="407.0" y2="429.0" /><line fill="none" marker-end="url(#id1)" stroke="#222222" x1="590.0" x2="590.0" y1="593.0" y2="615.0" /><line fill="none" marker-end="url(#id1)" stroke="#222222" x1="198.0" x2="211.0" y1="55.0" y2="110.0" /><line fill="none" marker-end="url(#id1)" stroke="#222222" x1="590.0" x2="589.0" y1="55.0" y2="110.0" /><line fill="none" marker-end="url(#id1)" stroke="#222222" x1="982.0" x2="967.0" y1="55.0" y2="110.0" /></svg>
