<svg baseProfile="full" height="1105.0" version="1.1" width="1780" xmlns="http://www.w3.org/2000/svg" xmlns:ev="http://www.w3.org/2001/xml-events" xmlns:xlink="http://www.w3.org/1999/xlink"><defs><marker id="id1" markerHeight="15" markerWidth="15" orient="auto" refX="0" refY="0" viewBox="-5 -5 10 10"><polygon fill="#222222" points="5,0 0,2 0,-2" /></marker></defs><rect fill="rgb(72%,76%,84%)" height="1105.0" stroke="black" width="1780" x="0" y="0" /><text dy="15" style="font-size:12px;" x="0" y="0">main (node27)</text><text dy="27" style="font-size:12px;" x="0" y="0" /><rect fill="#aa9999" height="20" stroke="grey" width="1776" x="2" y="1083.0" /><rect fill="#9999aa" height="20" stroke="grey" width="355" x="2" y="35.0" /><text dy="15" style="font-size:8px;" x="2" y="35.0">A</text><rect fill="#9999aa" height="20" stroke="grey" width="355" x="357" y="35.0" /><text dy="15" style="font-size:8px;" x="357" y="35.0">B</text><rect fill="#9999aa" height="20" stroke="grey" width="355" x="712" y="35.0" /><text dy="15" style="font-size:8px;" x="712" y="35.0">M</text><rect fill="#9999aa" height="20" stroke="grey" width="355" x="1067" y="35.0" /><text dy="15" style="font-size:8px;" x="1067" y="35.0">N</text><rect fill="#9999aa" height="20" stroke="grey" width="355" x="1422" y="35.0" /><text dy="15" style="font-size:8px;" x="1422" y="35.0">K</text><rect fill="rgb(75%,78%,81%)" height="988.0" stroke="black" width="1740" x="20" y="75.0" /><text dy="15" style="font-size:12px;" x="20" y="75.0">LoopExpression (node26)</text><text dy="27" style="font-size:12px;" x="20" y="75.0" /><rect fill="#aa9999" height="20" stroke="grey" width="1736" x="22" y="1041.0" /><text dy="15" style="font-size:8px;" x="22" y="1041.0">reduction_0</text><rect fill="#9999aa" height="20" stroke="grey" width="347" x="22" y="110.0" /><text dy="15" style="font-size:8px;" x="22" y="110.0">A</text><rect fill="#9999aa" height="20" stroke="grey" width="347" x="369" y="110.0" /><text dy="15" style="font-size:8px;" x="369" y="110.0">B</text><rect fill="#9999aa" height="20" stroke="grey" width="347" x="716" y="110.0" /><text dy="15" style="font-size:8px;" x="716" y="110.0">M</text><rect fill="#9999aa" height="20" stroke="grey" width="347" x="1063" y="110.0" /><text dy="15" style="font-size:8px;" x="1063" y="110.0">N</text><rect fill="#9999aa" height="20" stroke="grey" width="347" x="1410" y="110.0" /><text dy="15" style="font-size:8px;" x="1410" y="110.0">K</text><rect fill="rgb(79%,79%,74%)" height="871.0" stroke="black" width="1300" x="40" y="150.0" /><text dy="15" style="font-size:12px;" x="40" y="150.0">Body (node23)</text><text dy="27" style="font-size:12px;" x="40" y="150.0" /><rect fill="#aa9999" height="20" stroke="grey" width="1296" x="42" y="999.0" /><text dy="15" style="font-size:8px;" x="42" y="999.0">Ci</text><rect fill="#9999aa" height="20" stroke="grey" width="185" x="42" y="185.0" /><text dy="15" style="font-size:8px;" x="42" y="185.0">i</text><rect fill="#9999aa" height="20" stroke="grey" width="185" x="227" y="185.0" /><text dy="15" style="font-size:8px;" x="227" y="185.0">i_index</text><rect fill="#9999aa" height="20" stroke="grey" width="185" x="412" y="185.0" /><text dy="15" style="font-size:8px;" x="412" y="185.0">A</text><rect fill="#9999aa" height="20" stroke="grey" width="185" x="597" y="185.0" /><text dy="15" style="font-size:8px;" x="597" y="185.0">B</text><rect fill="#9999aa" height="20" stroke="grey" width="185" x="782" y="185.0" /><text dy="15" style="font-size:8px;" x="782" y="185.0">M</text><rect fill="#9999aa" height="20" stroke="grey" width="185" x="967" y="185.0" /><text dy="15" style="font-size:8px;" x="967" y="185.0">N</text><rect fill="#9999aa" height="20" stroke="grey" width="185" x="1152" y="185.0" /><text dy="15" style="font-size:8px;" x="1152" y="185.0">K</text><rect fill="rgb(79%,70%,77%)" height="754.0" stroke="black" width="1260" x="60" y="225.0" /><text dy="15" style="font-size:12px;" x="60" y="225.0">LoopExpression (node22)</text><text dy="27" style="font-size:12px;" x="60" y="225.0" /><rect fill="#aa9999" height="20" stroke="grey" width="1256" x="62" y="957.0" /><text dy="15" style="font-size:8px;" x="62" y="957.0">reduction_0</text><rect fill="#9999aa" height="20" stroke="grey" width="179" x="62" y="260.0" /><text dy="15" style="font-size:8px;" x="62" y="260.0">i</text><rect fill="#9999aa" height="20" stroke="grey" width="179" x="241" y="260.0" /><text dy="15" style="font-size:8px;" x="241" y="260.0">i_index</text><rect fill="#9999aa" height="20" stroke="grey" width="179" x="420" y="260.0" /><text dy="15" style="font-size:8px;" x="420" y="260.0">A</text><rect fill="#9999aa" height="20" stroke="grey" width="179" x="599" y="260.0" /><text dy="15" style="font-size:8px;" x="599" y="260.0">B</text><rect fill="#9999aa" height="20" stroke="grey" width="179" x="778" y="260.0" /><text dy="15" style="font-size:8px;" x="778" y="260.0">M</text><rect fill="#9999aa" height="20" stroke="grey" width="179" x="957" y="260.0" /><text dy="15" style="font-size:8px;" x="957" y="260.0">N</text><rect fill="#9999aa" height="20" stroke="grey" width="179" x="1136" y="260.0" /><text dy="15" style="font-size:8px;" x="1136" y="260.0">K</text><rect fill="rgb(72%,70%,79%)" height="637.0" stroke="black" width="820" x="80" y="300.0" /><text dy="15" style="font-size:12px;" x="80" y="300.0">Body (node19)</text><text dy="27" style="font-size:12px;" x="80" y="300.0" /><rect fill="#aa9999" height="20" stroke="grey" width="816" x="82" y="915.0" /><text dy="15" style="font-size:8px;" x="82" y="915.0">Cij</text><rect fill="#9999aa" height="20" stroke="grey" width="90" x="82" y="335.0" /><text dy="15" style="font-size:8px;" x="82" y="335.0">j</text><rect fill="#9999aa" height="20" stroke="grey" width="90" x="172" y="335.0" /><text dy="15" style="font-size:8px;" x="172" y="335.0">j_index</text><rect fill="#9999aa" height="20" stroke="grey" width="90" x="262" y="335.0" /><text dy="15" style="font-size:8px;" x="262" y="335.0">i</text><rect fill="#9999aa" height="20" stroke="grey" width="90" x="352" y="335.0" /><text dy="15" style="font-size:8px;" x="352" y="335.0">i_index</text><rect fill="#9999aa" height="20" stroke="grey" width="90" x="442" y="335.0" /><text dy="15" style="font-size:8px;" x="442" y="335.0">A</text><rect fill="#9999aa" height="20" stroke="grey" width="90" x="532" y="335.0" /><text dy="15" style="font-size:8px;" x="532" y="335.0">B</text><rect fill="#9999aa" height="20" stroke="grey" width="90" x="622" y="335.0" /><text dy="15" style="font-size:8px;" x="622" y="335.0">M</text><rect fill="#9999aa" height="20" stroke="grey" width="90" x="712" y="335.0" /><text dy="15" style="font-size:8px;" x="712" y="335.0">N</text><rect fill="#9999aa" height="20" stroke="grey" width="90" x="802" y="335.0" /><text dy="15" style="font-size:8px;" x="802" y="335.0">K</text><rect fill="rgb(70%,82%,77%)" height="520.0" stroke="black" width="780" x="100" y="375.0" /><text dy="15" style="font-size:12px;" x="100" y="375.0">LoopExpression (node18)</text><text dy="27" style="font-size:12px;" x="100" y="375.0" /><rect fill="#aa9999" height="20" stroke="grey" width="776" x="102" y="873.0" /><text dy="15" style="font-size:8px;" x="102" y="873.0">reduction_0</text><rect fill="#9999aa" height="20" stroke="grey" width="86" x="102" y="410.0" /><text dy="15" style="font-size:8px;" x="102" y="410.0">j</text><rect fill="#9999aa" height="20" stroke="grey" width="86" x="188" y="410.0" /><text dy="15" style="font-size:8px;" x="188" y="410.0">j_index</text><rect fill="#9999aa" height="20" stroke="grey" width="86" x="274" y="410.0" /><text dy="15" style="font-size:8px;" x="274" y="410.0">i</text><rect fill="#9999aa" height="20" stroke="grey" width="86" x="360" y="410.0" /><text dy="15" style="font-size:8px;" x="360" y="410.0">i_index</text><rect fill="#9999aa" height="20" stroke="grey" width="86" x="446" y="410.0" /><text dy="15" style="font-size:8px;" x="446" y="410.0">A</text><rect fill="#9999aa" height="20" stroke="grey" width="86" x="532" y="410.0" /><text dy="15" style="font-size:8px;" x="532" y="410.0">B</text><rect fill="#9999aa" height="20" stroke="grey" width="86" x="618" y="410.0" /><text dy="15" style="font-size:8px;" x="618" y="410.0">M</text><rect fill="#9999aa" height="20" stroke="grey" width="86" x="704" y="410.0" /><text dy="15" style="font-size:8px;" x="704" y="410.0">N</text><rect fill="#9999aa" height="20" stroke="grey" width="86" x="790" y="410.0" /><text dy="15" style="font-size:8px;" x="790" y="410.0">K</text><rect fill="rgb(78%,84%,74%)" height="403.0" stroke="black" width="340" x="120" y="450.0" /><text dy="15" style="font-size:12px;" x="120" y="450.0">Body (node15)</text><text dy="27" style="font-size:12px;" x="120" y="450.0" /><rect fill="#aa9999" height="20" stroke="grey" width="336" x="122" y="831.0" /><text dy="15" style="font-size:8px;" x="122" y="831.0">Sij</text><rect fill="#9999aa" height="20" stroke="grey" width="30" x="122" y="485.0" /><text dy="15" style="font-size:8px;" x="122" y="485.0">k</text><rect fill="#9999aa" height="20" stroke="grey" width="30" x="152" y="485.0" /><text dy="15" style="font-size:8px;" x="152" y="485.0">k_index</text><rect fill="#9999aa" height="20" stroke="grey" width="30" x="182" y="485.0" /><text dy="15" style="font-size:8px;" x="182" y="485.0">j</text><rect fill="#9999aa" height="20" stroke="grey" width="30" x="212" y="485.0" /><text dy="15" style="font-size:8px;" x="212" y="485.0">j_index</text><rect fill="#9999aa" height="20" stroke="grey" width="30" x="242" y="485.0" /><text dy="15" style="font-size:8px;" x="242" y="485.0">i</text><rect fill="#9999aa" height="20" stroke="grey" width="30" x="272" y="485.0" /><text dy="15" style="font-size:8px;" x="272" y="485.0">i_index</text><rect fill="#9999aa" height="20" stroke="grey" width="30" x="302" y="485.0" /><text dy="15" style="font-size:8px;" x="302" y="485.0">A</text><rect fill="#9999aa" height="20" stroke="grey" width="30" x="332" y="485.0" /><text dy="15" style="font-size:8px;" x="332" y="485.0">B</text><rect fill="#9999aa" height="20" stroke="grey" width="30" x="362" y="485.0" /><text dy="15" style="font-size:8px;" x="362" y="485.0">M</text><rect fill="#9999aa" height="20" stroke="grey" width="30" x="392" y="485.0" /><text dy="15" style="font-size:8px;" x="392" y="485.0">N</text><rect fill="#9999aa" height="20" stroke="grey" width="30" x="422" y="485.0" /><text dy="15" style="font-size:8px;" x="422" y="485.0">K</text><rect fill="rgb(78%,76%,78%)" height="82.0" stroke="black" width="140" x="140" y="729.0" /><text dy="15" style="font-size:12px;" x="140" y="729.0">Binary (node13)</text><text dy="27" style="font-size:12px;" x="140" y="729.0">operator: *</text><rect fill="#aa9999" height="20" stroke="grey" width="136" x="142" y="789.0" /><text dy="15" style="font-size:8px;" x="142" y="789.0">binary output (*)</text><rect fill="#9999aa" height="20" stroke="grey" width="68" x="142" y="764.0" /><text dy="15" style="font-size:8px;" x="142" y="764.0">left</text><rect fill="#9999aa" height="20" stroke="grey" width="68" x="210" y="764.0" /><text dy="15" style="font-size:8px;" x="210" y="764.0">right</text><rect fill="rgb(80%,80%,69%)" height="82.0" stroke="black" width="140" x="140" y="627.0" /><text dy="15" style="font-size:12px;" x="140" y="627.0">ArrayAccess (node28)</text><text dy="27" style="font-size:12px;" x="140" y="627.0" /><rect fill="#aa9999" height="20" stroke="grey" width="136" x="142" y="687.0" /><rect fill="#9999aa" height="20" stroke="grey" width="68" x="142" y="662.0" /><text dy="15" style="font-size:8px;" x="142" y="662.0">array</text><rect fill="#9999aa" height="20" stroke="grey" width="68" x="210" y="662.0" /><text dy="15" style="font-size:8px;" x="210" y="662.0">index</text><rect fill="rgb(74%,79%,80%)" height="82.0" stroke="black" width="140" x="300" y="627.0" /><text dy="15" style="font-size:12px;" x="300" y="627.0">ArrayAccess (node29)</text><text dy="27" style="font-size:12px;" x="300" y="627.0" /><rect fill="#aa9999" height="20" stroke="grey" width="136" x="302" y="687.0" /><rect fill="#9999aa" height="20" stroke="grey" width="68" x="302" y="662.0" /><text dy="15" style="font-size:8px;" x="302" y="662.0">array</text><rect fill="#9999aa" height="20" stroke="grey" width="68" x="370" y="662.0" /><text dy="15" style="font-size:8px;" x="370" y="662.0">index</text><rect fill="rgb(70%,81%,82%)" height="82.0" stroke="black" width="140" x="140" y="525.0" /><text dy="15" style="font-size:12px;" x="140" y="525.0">ArrayAccess (node12)</text><text dy="27" style="font-size:12px;" x="140" y="525.0" /><rect fill="#aa9999" height="20" stroke="grey" width="136" x="142" y="585.0" /><rect fill="#9999aa" height="20" stroke="grey" width="68" x="142" y="560.0" /><text dy="15" style="font-size:8px;" x="142" y="560.0">array</text><rect fill="#9999aa" height="20" stroke="grey" width="68" x="210" y="560.0" /><text dy="15" style="font-size:8px;" x="210" y="560.0">index</text><rect fill="rgb(81%,78%,81%)" height="82.0" stroke="black" width="140" x="300" y="525.0" /><text dy="15" style="font-size:12px;" x="300" y="525.0">ArrayAccess (node14)</text><text dy="27" style="font-size:12px;" x="300" y="525.0" /><rect fill="#aa9999" height="20" stroke="grey" width="136" x="302" y="585.0" /><rect fill="#9999aa" height="20" stroke="grey" width="68" x="302" y="560.0" /><text dy="15" style="font-size:8px;" x="302" y="560.0">array</text><rect fill="#9999aa" height="20" stroke="grey" width="68" x="370" y="560.0" /><text dy="15" style="font-size:8px;" x="370" y="560.0">index</text><rect fill="rgb(78%,74%,79%)" height="403.0" stroke="black" width="180" x="480" y="450.0" /><text dy="15" style="font-size:12px;" x="480" y="450.0">RangeGen (node11)</text><text dy="27" style="font-size:12px;" x="480" y="450.0" /><rect fill="#aa9999" height="20" stroke="grey" width="88" x="482" y="831.0" /><text dy="15" style="font-size:8px;" x="482" y="831.0">k</text><rect fill="#aa9999" height="20" stroke="grey" width="88" x="570" y="831.0" /><text dy="15" style="font-size:8px;" x="570" y="831.0">k_index</text><rect fill="#9999aa" height="20" stroke="grey" width="19" x="482" y="485.0" /><text dy="15" style="font-size:8px;" x="482" y="485.0">j</text><rect fill="#9999aa" height="20" stroke="grey" width="19" x="501" y="485.0" /><text dy="15" style="font-size:8px;" x="501" y="485.0">j_index</text><rect fill="#9999aa" height="20" stroke="grey" width="19" x="520" y="485.0" /><text dy="15" style="font-size:8px;" x="520" y="485.0">i</text><rect fill="#9999aa" height="20" stroke="grey" width="19" x="539" y="485.0" /><text dy="15" style="font-size:8px;" x="539" y="485.0">i_index</text><rect fill="#9999aa" height="20" stroke="grey" width="19" x="558" y="485.0" /><text dy="15" style="font-size:8px;" x="558" y="485.0">A</text><rect fill="#9999aa" height="20" stroke="grey" width="19" x="577" y="485.0" /><text dy="15" style="font-size:8px;" x="577" y="485.0">B</text><rect fill="#9999aa" height="20" stroke="grey" width="19" x="596" y="485.0" /><text dy="15" style="font-size:8px;" x="596" y="485.0">M</text><rect fill="#9999aa" height="20" stroke="grey" width="19" x="615" y="485.0" /><text dy="15" style="font-size:8px;" x="615" y="485.0">N</text><rect fill="#9999aa" height="20" stroke="grey" width="19" x="634" y="485.0" /><text dy="15" style="font-size:8px;" x="634" y="485.0">K</text><rect fill="rgb(70%,69%,75%)" height="82.0" stroke="black" width="140" x="500" y="729.0" /><text dy="15" style="font-size:12px;" x="500" y="729.0">Scatter (node10)</text><text dy="27" style="font-size:12px;" x="500" y="729.0" /><rect fill="#aa9999" height="20" stroke="grey" width="68" x="502" y="789.0" /><text dy="15" style="font-size:8px;" x="502" y="789.0">element</text><rect fill="#aa9999" height="20" stroke="grey" width="68" x="570" y="789.0" /><text dy="15" style="font-size:8px;" x="570" y="789.0">index</text><rect fill="#9999aa" height="20" stroke="grey" width="136" x="502" y="764.0" /><text dy="15" style="font-size:8px;" x="502" y="764.0">input</text><rect fill="rgb(72%,81%,77%)" height="82.0" stroke="black" width="140" x="500" y="627.0" /><text dy="15" style="font-size:12px;" x="500" y="627.0">Range (node9)</text><text dy="27" style="font-size:12px;" x="500" y="627.0" /><rect fill="#aa9999" height="20" stroke="grey" width="136" x="502" y="687.0" /><text dy="15" style="font-size:8px;" x="502" y="687.0">range output</text><rect fill="#9999aa" height="20" stroke="grey" width="68" x="502" y="662.0" /><text dy="15" style="font-size:8px;" x="502" y="662.0">left boundary</text><rect fill="#9999aa" height="20" stroke="grey" width="68" x="570" y="662.0" /><text dy="15" style="font-size:8px;" x="570" y="662.0">right boundary</text><rect fill="rgb(73%,83%,82%)" height="82.0" stroke="black" width="140" x="500" y="525.0" /><text dy="15" style="font-size:12px;" x="500" y="525.0">Literal (node8)</text><text dy="27" style="font-size:12px;" x="500" y="525.0">value: 1</text><rect fill="#aa9999" height="20" stroke="grey" width="136" x="502" y="585.0" /><rect fill="rgb(81%,70%,75%)" height="301.0" stroke="black" width="180" x="680" y="450.0" /><text dy="15" style="font-size:12px;" x="680" y="450.0">Returns (node17)</text><text dy="27" style="font-size:12px;" x="680" y="450.0" /><rect fill="#aa9999" height="20" stroke="grey" width="176" x="682" y="729.0" /><text dy="15" style="font-size:8px;" x="682" y="729.0">reduction_0</text><rect fill="#9999aa" height="20" stroke="grey" width="14" x="682" y="485.0" /><text dy="15" style="font-size:8px;" x="682" y="485.0">Sij</text><rect fill="#9999aa" height="20" stroke="grey" width="14" x="696" y="485.0" /><text dy="15" style="font-size:8px;" x="696" y="485.0">k</text><rect fill="#9999aa" height="20" stroke="grey" width="14" x="710" y="485.0" /><text dy="15" style="font-size:8px;" x="710" y="485.0">k_index</text><rect fill="#9999aa" height="20" stroke="grey" width="14" x="724" y="485.0" /><text dy="15" style="font-size:8px;" x="724" y="485.0">j</text><rect fill="#9999aa" height="20" stroke="grey" width="14" x="738" y="485.0" /><text dy="15" style="font-size:8px;" x="738" y="485.0">j_index</text><rect fill="#9999aa" height="20" stroke="grey" width="14" x="752" y="485.0" /><text dy="15" style="font-size:8px;" x="752" y="485.0">i</text><rect fill="#9999aa" height="20" stroke="grey" width="14" x="766" y="485.0" /><text dy="15" style="font-size:8px;" x="766" y="485.0">i_index</text><rect fill="#9999aa" height="20" stroke="grey" width="14" x="780" y="485.0" /><text dy="15" style="font-size:8px;" x="780" y="485.0">A</text><rect fill="#9999aa" height="20" stroke="grey" width="14" x="794" y="485.0" /><text dy="15" style="font-size:8px;" x="794" y="485.0">B</text><rect fill="#9999aa" height="20" stroke="grey" width="14" x="808" y="485.0" /><text dy="15" style="font-size:8px;" x="808" y="485.0">M</text><rect fill="#9999aa" height="20" stroke="grey" width="14" x="822" y="485.0" /><text dy="15" style="font-size:8px;" x="822" y="485.0">N</text><rect fill="#9999aa" height="20" stroke="grey" width="14" x="836" y="485.0" /><text dy="15" style="font-size:8px;" x="836" y="485.0">K</text><rect fill="rgb(72%,71%,80%)" height="82.0" stroke="black" width="140" x="700" y="627.0" /><text dy="15" style="font-size:12px;" x="700" y="627.0">Reduction (node16)</text><text dy="27" style="font-size:12px;" x="700" y="627.0">operator: sum</text><rect fill="#aa9999" height="20" stroke="grey" width="136" x="702" y="687.0" /><text dy="15" style="font-size:8px;" x="702" y="687.0">reduction output</text><rect fill="#9999aa" height="20" stroke="grey" width="68" x="702" y="662.0" /><text dy="15" style="font-size:8px;" x="702" y="662.0">cond input</text><rect fill="#9999aa" height="20" stroke="grey" width="68" x="770" y="662.0" /><text dy="15" style="font-size:8px;" x="770" y="662.0">value input</text><rect fill="rgb(81%,79%,84%)" height="82.0" stroke="black" width="140" x="700" y="525.0" /><text dy="15" style="font-size:12px;" x="700" y="525.0">Literal (node30)</text><text dy="27" style="font-size:12px;" x="700" y="525.0">value: True</text><rect fill="#aa9999" height="20" stroke="grey" width="136" x="702" y="585.0" /><rect fill="rgb(76%,72%,74%)" height="403.0" stroke="black" width="180" x="920" y="300.0" /><text dy="15" style="font-size:12px;" x="920" y="300.0">RangeGen (node7)</text><text dy="27" style="font-size:12px;" x="920" y="300.0" /><rect fill="#aa9999" height="20" stroke="grey" width="88" x="922" y="681.0" /><text dy="15" style="font-size:8px;" x="922" y="681.0">j</text><rect fill="#aa9999" height="20" stroke="grey" width="88" x="1010" y="681.0" /><text dy="15" style="font-size:8px;" x="1010" y="681.0">j_index</text><rect fill="#9999aa" height="20" stroke="grey" width="25" x="922" y="335.0" /><text dy="15" style="font-size:8px;" x="922" y="335.0">i</text><rect fill="#9999aa" height="20" stroke="grey" width="25" x="947" y="335.0" /><text dy="15" style="font-size:8px;" x="947" y="335.0">i_index</text><rect fill="#9999aa" height="20" stroke="grey" width="25" x="972" y="335.0" /><text dy="15" style="font-size:8px;" x="972" y="335.0">A</text><rect fill="#9999aa" height="20" stroke="grey" width="25" x="997" y="335.0" /><text dy="15" style="font-size:8px;" x="997" y="335.0">B</text><rect fill="#9999aa" height="20" stroke="grey" width="25" x="1022" y="335.0" /><text dy="15" style="font-size:8px;" x="1022" y="335.0">M</text><rect fill="#9999aa" height="20" stroke="grey" width="25" x="1047" y="335.0" /><text dy="15" style="font-size:8px;" x="1047" y="335.0">N</text><rect fill="#9999aa" height="20" stroke="grey" width="25" x="1072" y="335.0" /><text dy="15" style="font-size:8px;" x="1072" y="335.0">K</text><rect fill="rgb(84%,71%,69%)" height="82.0" stroke="black" width="140" x="940" y="579.0" /><text dy="15" style="font-size:12px;" x="940" y="579.0">Scatter (node6)</text><text dy="27" style="font-size:12px;" x="940" y="579.0" /><rect fill="#aa9999" height="20" stroke="grey" width="68" x="942" y="639.0" /><text dy="15" style="font-size:8px;" x="942" y="639.0">element</text><rect fill="#aa9999" height="20" stroke="grey" width="68" x="1010" y="639.0" /><text dy="15" style="font-size:8px;" x="1010" y="639.0">index</text><rect fill="#9999aa" height="20" stroke="grey" width="136" x="942" y="614.0" /><text dy="15" style="font-size:8px;" x="942" y="614.0">input</text><rect fill="rgb(75%,69%,77%)" height="82.0" stroke="black" width="140" x="940" y="477.0" /><text dy="15" style="font-size:12px;" x="940" y="477.0">Range (node5)</text><text dy="27" style="font-size:12px;" x="940" y="477.0" /><rect fill="#aa9999" height="20" stroke="grey" width="136" x="942" y="537.0" /><text dy="15" style="font-size:8px;" x="942" y="537.0">range output</text><rect fill="#9999aa" height="20" stroke="grey" width="68" x="942" y="512.0" /><text dy="15" style="font-size:8px;" x="942" y="512.0">left boundary</text><rect fill="#9999aa" height="20" stroke="grey" width="68" x="1010" y="512.0" /><text dy="15" style="font-size:8px;" x="1010" y="512.0">right boundary</text><rect fill="rgb(83%,71%,76%)" height="82.0" stroke="black" width="140" x="940" y="375.0" /><text dy="15" style="font-size:12px;" x="940" y="375.0">Literal (node4)</text><text dy="27" style="font-size:12px;" x="940" y="375.0">value: 1</text><rect fill="#aa9999" height="20" stroke="grey" width="136" x="942" y="435.0" /><rect fill="rgb(72%,82%,72%)" height="301.0" stroke="black" width="180" x="1120" y="300.0" /><text dy="15" style="font-size:12px;" x="1120" y="300.0">Returns (node21)</text><text dy="27" style="font-size:12px;" x="1120" y="300.0" /><rect fill="#aa9999" height="20" stroke="grey" width="176" x="1122" y="579.0" /><text dy="15" style="font-size:8px;" x="1122" y="579.0">reduction_0</text><rect fill="#9999aa" height="20" stroke="grey" width="17" x="1122" y="335.0" /><text dy="15" style="font-size:8px;" x="1122" y="335.0">Cij</text><rect fill="#9999aa" height="20" stroke="grey" width="17" x="1139" y="335.0" /><text dy="15" style="font-size:8px;" x="1139" y="335.0">j</text><rect fill="#9999aa" height="20" stroke="grey" width="17" x="1156" y="335.0" /><text dy="15" style="font-size:8px;" x="1156" y="335.0">j_index</text><rect fill="#9999aa" height="20" stroke="grey" width="17" x="1173" y="335.0" /><text dy="15" style="font-size:8px;" x="1173" y="335.0">i</text><rect fill="#9999aa" height="20" stroke="grey" width="17" x="1190" y="335.0" /><text dy="15" style="font-size:8px;" x="1190" y="335.0">i_index</text><rect fill="#9999aa" height="20" stroke="grey" width="17" x="1207" y="335.0" /><text dy="15" style="font-size:8px;" x="1207" y="335.0">A</text><rect fill="#9999aa" height="20" stroke="grey" width="17" x="1224" y="335.0" /><text dy="15" style="font-size:8px;" x="1224" y="335.0">B</text><rect fill="#9999aa" height="20" stroke="grey" width="17" x="1241" y="335.0" /><text dy="15" style="font-size:8px;" x="1241" y="335.0">M</text><rect fill="#9999aa" height="20" stroke="grey" width="17" x="1258" y="335.0" /><text dy="15" style="font-size:8px;" x="1258" y="335.0">N</text><rect fill="#9999aa" height="20" stroke="grey" width="17" x="1275" y="335.0" /><text dy="15" style="font-size:8px;" x="1275" y="335.0">K</text><rect fill="rgb(72%,76%,77%)" height="82.0" stroke="black" width="140" x="1140" y="477.0" /><text dy="15" style="font-size:12px;" x="1140" y="477.0">Reduction (node20)</text><text dy="27" style="font-size:12px;" x="1140" y="477.0">operator: array</text><rect fill="#aa9999" height="20" stroke="grey" width="136" x="1142" y="537.0" /><text dy="15" style="font-size:8px;" x="1142" y="537.0">reduction output</text><rect fill="#9999aa" height="20" stroke="grey" width="68" x="1142" y="512.0" /><text dy="15" style="font-size:8px;" x="1142" y="512.0">cond input</text><rect fill="#9999aa" height="20" stroke="grey" width="68" x="1210" y="512.0" /><text dy="15" style="font-size:8px;" x="1210" y="512.0">value input</text><rect fill="rgb(77%,70%,73%)" height="82.0" stroke="black" width="140" x="1140" y="375.0" /><text dy="15" style="font-size:12px;" x="1140" y="375.0">Literal (node31)</text><text dy="27" style="font-size:12px;" x="1140" y="375.0">value: True</text><rect fill="#aa9999" height="20" stroke="grey" width="136" x="1142" y="435.0" /><rect fill="rgb(75%,76%,78%)" height="403.0" stroke="black" width="180" x="1360" y="150.0" /><text dy="15" style="font-size:12px;" x="1360" y="150.0">RangeGen (node3)</text><text dy="27" style="font-size:12px;" x="1360" y="150.0" /><rect fill="#aa9999" height="20" stroke="grey" width="88" x="1362" y="531.0" /><text dy="15" style="font-size:8px;" x="1362" y="531.0">i</text><rect fill="#aa9999" height="20" stroke="grey" width="88" x="1450" y="531.0" /><text dy="15" style="font-size:8px;" x="1450" y="531.0">i_index</text><rect fill="#9999aa" height="20" stroke="grey" width="35" x="1362" y="185.0" /><text dy="15" style="font-size:8px;" x="1362" y="185.0">A</text><rect fill="#9999aa" height="20" stroke="grey" width="35" x="1397" y="185.0" /><text dy="15" style="font-size:8px;" x="1397" y="185.0">B</text><rect fill="#9999aa" height="20" stroke="grey" width="35" x="1432" y="185.0" /><text dy="15" style="font-size:8px;" x="1432" y="185.0">M</text><rect fill="#9999aa" height="20" stroke="grey" width="35" x="1467" y="185.0" /><text dy="15" style="font-size:8px;" x="1467" y="185.0">N</text><rect fill="#9999aa" height="20" stroke="grey" width="35" x="1502" y="185.0" /><text dy="15" style="font-size:8px;" x="1502" y="185.0">K</text><rect fill="rgb(73%,78%,76%)" height="82.0" stroke="black" width="140" x="1380" y="429.0" /><text dy="15" style="font-size:12px;" x="1380" y="429.0">Scatter (node2)</text><text dy="27" style="font-size:12px;" x="1380" y="429.0" /><rect fill="#aa9999" height="20" stroke="grey" width="68" x="1382" y="489.0" /><text dy="15" style="font-size:8px;" x="1382" y="489.0">element</text><rect fill="#aa9999" height="20" stroke="grey" width="68" x="1450" y="489.0" /><text dy="15" style="font-size:8px;" x="1450" y="489.0">index</text><rect fill="#9999aa" height="20" stroke="grey" width="136" x="1382" y="464.0" /><text dy="15" style="font-size:8px;" x="1382" y="464.0">input</text><rect fill="rgb(84%,81%,79%)" height="82.0" stroke="black" width="140" x="1380" y="327.0" /><text dy="15" style="font-size:12px;" x="1380" y="327.0">Range (node1)</text><text dy="27" style="font-size:12px;" x="1380" y="327.0" /><rect fill="#aa9999" height="20" stroke="grey" width="136" x="1382" y="387.0" /><text dy="15" style="font-size:8px;" x="1382" y="387.0">range output</text><rect fill="#9999aa" height="20" stroke="grey" width="68" x="1382" y="362.0" /><text dy="15" style="font-size:8px;" x="1382" y="362.0">left boundary</text><rect fill="#9999aa" height="20" stroke="grey" width="68" x="1450" y="362.0" /><text dy="15" style="font-size:8px;" x="1450" y="362.0">right boundary</text><rect fill="rgb(82%,82%,77%)" height="82.0" stroke="black" width="140" x="1380" y="225.0" /><text dy="15" style="font-size:12px;" x="1380" y="225.0">Literal (node0)</text><text dy="27" style="font-size:12px;" x="1380" y="225.0">value: 1</text><rect fill="#aa9999" height="20" stroke="grey" width="136" x="1382" y="285.0" /><rect fill="rgb(74%,71%,76%)" height="301.0" stroke="black" width="180" x="1560" y="150.0" /><text dy="15" style="font-size:12px;" x="1560" y="150.0">Returns (node25)</text><text dy="27" style="font-size:12px;" x="1560" y="150.0" /><rect fill="#aa9999" height="20" stroke="grey" width="176" x="1562" y="429.0" /><text dy="15" style="font-size:8px;" x="1562" y="429.0">reduction_0</text><rect fill="#9999aa" height="20" stroke="grey" width="22" x="1562" y="185.0" /><text dy="15" style="font-size:8px;" x="1562" y="185.0">Ci</text><rect fill="#9999aa" height="20" stroke="grey" width="22" x="1584" y="185.0" /><text dy="15" style="font-size:8px;" x="1584" y="185.0">i</text><rect fill="#9999aa" height="20" stroke="grey" width="22" x="1606" y="185.0" /><text dy="15" style="font-size:8px;" x="1606" y="185.0">i_index</text><rect fill="#9999aa" height="20" stroke="grey" width="22" x="1628" y="185.0" /><text dy="15" style="font-size:8px;" x="1628" y="185.0">A</text><rect fill="#9999aa" height="20" stroke="grey" width="22" x="1650" y="185.0" /><text dy="15" style="font-size:8px;" x="1650" y="185.0">B</text><rect fill="#9999aa" height="20" stroke="grey" width="22" x="1672" y="185.0" /><text dy="15" style="font-size:8px;" x="1672" y="185.0">M</text><rect fill="#9999aa" height="20" stroke="grey" width="22" x="1694" y="185.0" /><text dy="15" style="font-size:8px;" x="1694" y="185.0">N</text><rect fill="#9999aa" height="20" stroke="grey" width="22" x="1716" y="185.0" /><text dy="15" style="font-size:8px;" x="1716" y="185.0">K</text><rect fill="rgb(71%,77%,78%)" height="82.0" stroke="black" width="140" x="1580" y="327.0" /><text dy="15" style="font-size:12px;" x="1580" y="327.0">Reduction (node24)</text><text dy="27" style="font-size:12px;" x="1580" y="327.0">operator: array</text><rect fill="#aa9999" height="20" stroke="grey" width="136" x="1582" y="387.0" /><text dy="15" style="font-size:8px;" x="1582" y="387.0">reduction output</text><rect fill="#9999aa" height="20" stroke="grey" width="68" x="1582" y="362.0" /><text dy="15" style="font-size:8px;" x="1582" y="362.0">cond input</text><rect fill="#9999aa" height="20" stroke="grey" width="68" x="1650" y="362.0" /><text dy="15" style="font-size:8px;" x="1650" y="362.0">value input</text><rect fill="rgb(75%,81%,82%)" height="82.0" stroke="black" width="140" x="1580" y="225.0" /><text dy="15" style="font-size:12px;" x="1580" y="225.0">Literal (node32)</text><text dy="27" style="font-size:12px;" x="1580" y="225.0">value: True</text><rect fill="#aa9999" height="20" stroke="grey" width="136" x="1582" y="285.0" /><line fill="none" marker-end="url(#id1)" stroke="#222222" x1="1450.0" x2="1416.0" y1="305.0" y2="362.0" /><line fill="none" marker-end="url(#id1)" stroke="#222222" x1="1449.5" x2="1484.0" y1="205.0" y2="362.0" /><line fill="none" marker-end="url(#id1)" stroke="#222222" x1="1450.0" x2="1450.0" y1="407.0" y2="464.0" /><line fill="none" marker-end="url(#id1)" stroke="#222222" x1="1416.0" x2="1406.0" y1="509.0" y2="531.0" /><line fill="none" marker-end="url(#id1)" stroke="#222222" x1="1484.0" x2="1494.0" y1="509.0" y2="531.0" /><line fill="none" marker-end="url(#id1)" stroke="#222222" x1="1010.0" x2="976.0" y1="455.0" y2="512.0" /><line fill="none" marker-end="url(#id1)" stroke="#222222" x1="1059.5" x2="1044.0" y1="355.0" y2="512.0" /><line fill="none" marker-end="url(#id1)" stroke="#222222" x1="1010.0" x2="1010.0" y1="557.0" y2="614.0" /><line fill="none" marker-end="url(#id1)" stroke="#222222" x1="976.0" x2="966.0" y1="659.0" y2="681.0" /><line fill="none" marker-end="url(#id1)" stroke="#222222" x1="1044.0" x2="1054.0" y1="659.0" y2="681.0" /><line fill="none" marker-end="url(#id1)" stroke="#222222" x1="570.0" x2="536.0" y1="605.0" y2="662.0" /><line fill="none" marker-end="url(#id1)" stroke="#222222" x1="643.5" x2="604.0" y1="505.0" y2="662.0" /><line fill="none" marker-end="url(#id1)" stroke="#222222" x1="570.0" x2="570.0" y1="707.0" y2="764.0" /><line fill="none" marker-end="url(#id1)" stroke="#222222" x1="536.0" x2="526.0" y1="809.0" y2="831.0" /><line fill="none" marker-end="url(#id1)" stroke="#222222" x1="604.0" x2="614.0" y1="809.0" y2="831.0" /><line fill="none" marker-end="url(#id1)" stroke="#222222" x1="210.0" x2="176.0" y1="707.0" y2="764.0" /><line fill="none" marker-end="url(#id1)" stroke="#222222" x1="317.0" x2="176.0" y1="505.0" y2="560.0" /><line fill="none" marker-end="url(#id1)" stroke="#222222" x1="257.0" x2="244.0" y1="505.0" y2="560.0" /><line fill="none" marker-end="url(#id1)" stroke="#222222" x1="137.0" x2="244.0" y1="505.0" y2="662.0" /><line fill="none" marker-end="url(#id1)" stroke="#222222" x1="370.0" x2="244.0" y1="707.0" y2="764.0" /><line fill="none" marker-end="url(#id1)" stroke="#222222" x1="347.0" x2="336.0" y1="505.0" y2="560.0" /><line fill="none" marker-end="url(#id1)" stroke="#222222" x1="137.0" x2="404.0" y1="505.0" y2="560.0" /><line fill="none" marker-end="url(#id1)" stroke="#222222" x1="197.0" x2="404.0" y1="505.0" y2="662.0" /><line fill="none" marker-end="url(#id1)" stroke="#222222" x1="210.0" x2="290.0" y1="809.0" y2="831.0" /><line fill="none" marker-end="url(#id1)" stroke="#222222" x1="210.0" x2="176.0" y1="605.0" y2="662.0" /><line fill="none" marker-end="url(#id1)" stroke="#222222" x1="370.0" x2="336.0" y1="605.0" y2="662.0" /><line fill="none" marker-end="url(#id1)" stroke="#222222" x1="689.0" x2="804.0" y1="505.0" y2="662.0" /><line fill="none" marker-end="url(#id1)" stroke="#222222" x1="770.0" x2="736.0" y1="605.0" y2="662.0" /><line fill="none" marker-end="url(#id1)" stroke="#222222" x1="770.0" x2="770.0" y1="707.0" y2="729.0" /><line fill="none" marker-end="url(#id1)" stroke="#222222" x1="490.0" x2="490.0" y1="893.0" y2="915.0" /><line fill="none" marker-end="url(#id1)" stroke="#222222" x1="127.0" x2="145.0" y1="355.0" y2="410.0" /><line fill="none" marker-end="url(#id1)" stroke="#222222" x1="217.0" x2="231.0" y1="355.0" y2="410.0" /><line fill="none" marker-end="url(#id1)" stroke="#222222" x1="307.0" x2="317.0" y1="355.0" y2="410.0" /><line fill="none" marker-end="url(#id1)" stroke="#222222" x1="397.0" x2="403.0" y1="355.0" y2="410.0" /><line fill="none" marker-end="url(#id1)" stroke="#222222" x1="487.0" x2="489.0" y1="355.0" y2="410.0" /><line fill="none" marker-end="url(#id1)" stroke="#222222" x1="577.0" x2="575.0" y1="355.0" y2="410.0" /><line fill="none" marker-end="url(#id1)" stroke="#222222" x1="667.0" x2="661.0" y1="355.0" y2="410.0" /><line fill="none" marker-end="url(#id1)" stroke="#222222" x1="757.0" x2="747.0" y1="355.0" y2="410.0" /><line fill="none" marker-end="url(#id1)" stroke="#222222" x1="847.0" x2="833.0" y1="355.0" y2="410.0" /><line fill="none" marker-end="url(#id1)" stroke="#222222" x1="1130.5" x2="1244.0" y1="355.0" y2="512.0" /><line fill="none" marker-end="url(#id1)" stroke="#222222" x1="1210.0" x2="1176.0" y1="455.0" y2="512.0" /><line fill="none" marker-end="url(#id1)" stroke="#222222" x1="1210.0" x2="1210.0" y1="557.0" y2="579.0" /><line fill="none" marker-end="url(#id1)" stroke="#222222" x1="690.0" x2="690.0" y1="977.0" y2="999.0" /><line fill="none" marker-end="url(#id1)" stroke="#222222" x1="134.5" x2="151.5" y1="205.0" y2="260.0" /><line fill="none" marker-end="url(#id1)" stroke="#222222" x1="319.5" x2="330.5" y1="205.0" y2="260.0" /><line fill="none" marker-end="url(#id1)" stroke="#222222" x1="504.5" x2="509.5" y1="205.0" y2="260.0" /><line fill="none" marker-end="url(#id1)" stroke="#222222" x1="689.5" x2="688.5" y1="205.0" y2="260.0" /><line fill="none" marker-end="url(#id1)" stroke="#222222" x1="874.5" x2="867.5" y1="205.0" y2="260.0" /><line fill="none" marker-end="url(#id1)" stroke="#222222" x1="1059.5" x2="1046.5" y1="205.0" y2="260.0" /><line fill="none" marker-end="url(#id1)" stroke="#222222" x1="1244.5" x2="1225.5" y1="205.0" y2="260.0" /><line fill="none" marker-end="url(#id1)" stroke="#222222" x1="1573.0" x2="1684.0" y1="205.0" y2="362.0" /><line fill="none" marker-end="url(#id1)" stroke="#222222" x1="1650.0" x2="1616.0" y1="305.0" y2="362.0" /><line fill="none" marker-end="url(#id1)" stroke="#222222" x1="1650.0" x2="1650.0" y1="407.0" y2="429.0" /><line fill="none" marker-end="url(#id1)" stroke="#222222" x1="890.0" x2="890.0" y1="1061.0" y2="1083.0" /><line fill="none" marker-end="url(#id1)" stroke="#222222" x1="179.5" x2="195.5" y1="55.0" y2="110.0" /><line fill="none" marker-end="url(#id1)" stroke="#222222" x1="534.5" x2="542.5" y1="55.0" y2="110.0" /><line fill="none" marker-end="url(#id1)" stroke="#222222" x1="889.5" x2="889.5" y1="55.0" y2="110.0" /><line fill="none" marker-end="url(#id1)" stroke="#222222" x1="1244.5" x2="1236.5" y1="55.0" y2="110.0" /><line fill="none" marker-end="url(#id1)" stroke="#222222" x1="1599.5" x2="1583.5" y1="55.0" y2="110.0" /></svg>
