<svg baseProfile="full" height="1416.0" version="1.1" width="2380" xmlns="http://www.w3.org/2000/svg" xmlns:ev="http://www.w3.org/2001/xml-events" xmlns:xlink="http://www.w3.org/1999/xlink"><defs><marker id="id1" markerHeight="15" markerWidth="15" orient="auto" refX="0" refY="0" viewBox="-5 -5 10 10"><polygon fill="#222222" points="5,0 0,2 0,-2" /></marker></defs><rect fill="rgb(75%,83%,83%)" height="1207.0" stroke="black" width="2380" x="0" y="0" /><text dy="15" style="font-size:12px;" x="0" y="0">sort (node36)</text><text dy="27" style="font-size:12px;" x="0" y="0" /><rect fill="#aa9999" height="20" stroke="grey" width="2376" x="2" y="1185.0" /><rect fill="#9999aa" height="20" stroke="grey" width="2376" x="2" y="35.0" /><text dy="15" style="font-size:8px;" x="2" y="35.0">A</text><rect fill="rgb(78%,73%,70%)" height="1090.0" stroke="black" width="2340" x="20" y="75.0" /><text dy="15" style="font-size:12px;" x="20" y="75.0">If (node32)</text><text dy="27" style="font-size:12px;" x="20" y="75.0" /><rect fill="#aa9999" height="20" stroke="grey" width="2336" x="22" y="1143.0" /><rect fill="#9999aa" height="20" stroke="grey" width="2336" x="22" y="110.0" /><text dy="15" style="font-size:8px;" x="22" y="110.0">A</text><rect fill="rgb(82%,74%,74%)" height="82.0" stroke="black" width="140" x="40" y="150.0" /><text dy="15" style="font-size:12px;" x="40" y="150.0">Then (node34)</text><text dy="27" style="font-size:12px;" x="40" y="150.0" /><rect fill="#aa9999" height="20" stroke="grey" width="136" x="42" y="210.0" /><rect fill="#9999aa" height="20" stroke="grey" width="136" x="42" y="185.0" /><text dy="15" style="font-size:8px;" x="42" y="185.0">A</text><rect fill="rgb(70%,73%,70%)" height="973.0" stroke="black" width="1780" x="200" y="150.0" /><text dy="15" style="font-size:12px;" x="200" y="150.0">Else (node35)</text><text dy="27" style="font-size:12px;" x="200" y="150.0" /><rect fill="#aa9999" height="20" stroke="grey" width="1776" x="202" y="1101.0" /><rect fill="#9999aa" height="20" stroke="grey" width="1776" x="202" y="185.0" /><text dy="15" style="font-size:8px;" x="202" y="185.0">A</text><rect fill="rgb(73%,78%,76%)" height="856.0" stroke="black" width="1740" x="220" y="225.0" /><text dy="15" style="font-size:12px;" x="220" y="225.0">Let (node31)</text><text dy="27" style="font-size:12px;" x="220" y="225.0" /><rect fill="#aa9999" height="20" stroke="grey" width="1736" x="222" y="1059.0" /><rect fill="#9999aa" height="20" stroke="grey" width="1736" x="222" y="260.0" /><text dy="15" style="font-size:8px;" x="222" y="260.0">A</text><rect fill="rgb(73%,69%,69%)" height="739.0" stroke="black" width="1340" x="240" y="300.0" /><text dy="15" style="font-size:12px;" x="240" y="300.0">Init (node39)</text><text dy="27" style="font-size:12px;" x="240" y="300.0" /><rect fill="#aa9999" height="20" stroke="grey" width="445" x="242" y="1017.0" /><text dy="15" style="font-size:8px;" x="242" y="1017.0">Less</text><rect fill="#aa9999" height="20" stroke="grey" width="445" x="687" y="1017.0" /><text dy="15" style="font-size:8px;" x="687" y="1017.0">Same</text><rect fill="#aa9999" height="20" stroke="grey" width="445" x="1132" y="1017.0" /><text dy="15" style="font-size:8px;" x="1132" y="1017.0">More</text><rect fill="#9999aa" height="20" stroke="grey" width="1336" x="242" y="335.0" /><text dy="15" style="font-size:8px;" x="242" y="335.0">A</text><rect fill="rgb(83%,76%,73%)" height="622.0" stroke="black" width="420" x="260" y="375.0" /><text dy="15" style="font-size:12px;" x="260" y="375.0">LoopExpression (node10)</text><text dy="27" style="font-size:12px;" x="260" y="375.0" /><rect fill="#aa9999" height="20" stroke="grey" width="416" x="262" y="975.0" /><text dy="15" style="font-size:8px;" x="262" y="975.0">reduction_0</text><rect fill="#9999aa" height="20" stroke="grey" width="416" x="262" y="410.0" /><text dy="15" style="font-size:8px;" x="262" y="410.0">A</text><rect fill="rgb(71%,71%,73%)" height="199.0" stroke="black" width="180" x="280" y="450.0" /><text dy="15" style="font-size:12px;" x="280" y="450.0">RangeGen (node4)</text><text dy="27" style="font-size:12px;" x="280" y="450.0" /><rect fill="#aa9999" height="20" stroke="grey" width="88" x="282" y="627.0" /><text dy="15" style="font-size:8px;" x="282" y="627.0">a</text><rect fill="#aa9999" height="20" stroke="grey" width="88" x="370" y="627.0" /><text dy="15" style="font-size:8px;" x="370" y="627.0">a_index</text><rect fill="#9999aa" height="20" stroke="grey" width="176" x="282" y="485.0" /><text dy="15" style="font-size:8px;" x="282" y="485.0">A</text><rect fill="rgb(84%,70%,71%)" height="82.0" stroke="black" width="140" x="300" y="525.0" /><text dy="15" style="font-size:12px;" x="300" y="525.0">Scatter (node3)</text><text dy="27" style="font-size:12px;" x="300" y="525.0" /><rect fill="#aa9999" height="20" stroke="grey" width="68" x="302" y="585.0" /><text dy="15" style="font-size:8px;" x="302" y="585.0">element</text><rect fill="#aa9999" height="20" stroke="grey" width="68" x="370" y="585.0" /><text dy="15" style="font-size:8px;" x="370" y="585.0">index</text><rect fill="#9999aa" height="20" stroke="grey" width="136" x="302" y="560.0" /><text dy="15" style="font-size:8px;" x="302" y="560.0">input</text><rect fill="rgb(74%,74%,70%)" height="505.0" stroke="black" width="180" x="480" y="450.0" /><text dy="15" style="font-size:12px;" x="480" y="450.0">Returns (node9)</text><text dy="27" style="font-size:12px;" x="480" y="450.0" /><rect fill="#aa9999" height="20" stroke="grey" width="176" x="482" y="933.0" /><text dy="15" style="font-size:8px;" x="482" y="933.0">reduction_0</text><rect fill="#9999aa" height="20" stroke="grey" width="58" x="482" y="485.0" /><text dy="15" style="font-size:8px;" x="482" y="485.0">a</text><rect fill="#9999aa" height="20" stroke="grey" width="58" x="540" y="485.0" /><text dy="15" style="font-size:8px;" x="540" y="485.0">a_index</text><rect fill="#9999aa" height="20" stroke="grey" width="58" x="598" y="485.0" /><text dy="15" style="font-size:8px;" x="598" y="485.0">A</text><rect fill="rgb(84%,74%,69%)" height="82.0" stroke="black" width="140" x="500" y="831.0" /><text dy="15" style="font-size:12px;" x="500" y="831.0">Reduction (node8)</text><text dy="27" style="font-size:12px;" x="500" y="831.0">operator: array</text><rect fill="#aa9999" height="20" stroke="grey" width="136" x="502" y="891.0" /><text dy="15" style="font-size:8px;" x="502" y="891.0">reduction output</text><rect fill="#9999aa" height="20" stroke="grey" width="68" x="502" y="866.0" /><text dy="15" style="font-size:8px;" x="502" y="866.0">cond input</text><rect fill="#9999aa" height="20" stroke="grey" width="68" x="570" y="866.0" /><text dy="15" style="font-size:8px;" x="570" y="866.0">value input</text><rect fill="rgb(72%,84%,69%)" height="82.0" stroke="black" width="140" x="500" y="729.0" /><text dy="15" style="font-size:12px;" x="500" y="729.0">Binary (node5)</text><text dy="27" style="font-size:12px;" x="500" y="729.0">operator: &lt;</text><rect fill="#aa9999" height="20" stroke="grey" width="136" x="502" y="789.0" /><text dy="15" style="font-size:8px;" x="502" y="789.0">binary output (&lt;)</text><rect fill="#9999aa" height="20" stroke="grey" width="68" x="502" y="764.0" /><text dy="15" style="font-size:8px;" x="502" y="764.0">left</text><rect fill="#9999aa" height="20" stroke="grey" width="68" x="570" y="764.0" /><text dy="15" style="font-size:8px;" x="570" y="764.0">right</text><rect fill="rgb(81%,69%,81%)" height="82.0" stroke="black" width="140" x="500" y="627.0" /><text dy="15" style="font-size:12px;" x="500" y="627.0">ArrayAccess (node7)</text><text dy="27" style="font-size:12px;" x="500" y="627.0" /><rect fill="#aa9999" height="20" stroke="grey" width="136" x="502" y="687.0" /><rect fill="#9999aa" height="20" stroke="grey" width="68" x="502" y="662.0" /><text dy="15" style="font-size:8px;" x="502" y="662.0">array</text><rect fill="#9999aa" height="20" stroke="grey" width="68" x="570" y="662.0" /><text dy="15" style="font-size:8px;" x="570" y="662.0">index</text><rect fill="rgb(74%,84%,76%)" height="82.0" stroke="black" width="140" x="500" y="525.0" /><text dy="15" style="font-size:12px;" x="500" y="525.0">Literal (node6)</text><text dy="27" style="font-size:12px;" x="500" y="525.0">value: 1</text><rect fill="#aa9999" height="20" stroke="grey" width="136" x="502" y="585.0" /><rect fill="rgb(82%,80%,73%)" height="622.0" stroke="black" width="420" x="700" y="375.0" /><text dy="15" style="font-size:12px;" x="700" y="375.0">LoopExpression (node18)</text><text dy="27" style="font-size:12px;" x="700" y="375.0" /><rect fill="#aa9999" height="20" stroke="grey" width="416" x="702" y="975.0" /><text dy="15" style="font-size:8px;" x="702" y="975.0">reduction_0</text><rect fill="#9999aa" height="20" stroke="grey" width="416" x="702" y="410.0" /><text dy="15" style="font-size:8px;" x="702" y="410.0">A</text><rect fill="rgb(78%,84%,84%)" height="199.0" stroke="black" width="180" x="720" y="450.0" /><text dy="15" style="font-size:12px;" x="720" y="450.0">RangeGen (node12)</text><text dy="27" style="font-size:12px;" x="720" y="450.0" /><rect fill="#aa9999" height="20" stroke="grey" width="88" x="722" y="627.0" /><text dy="15" style="font-size:8px;" x="722" y="627.0">a</text><rect fill="#aa9999" height="20" stroke="grey" width="88" x="810" y="627.0" /><text dy="15" style="font-size:8px;" x="810" y="627.0">a_index</text><rect fill="#9999aa" height="20" stroke="grey" width="176" x="722" y="485.0" /><text dy="15" style="font-size:8px;" x="722" y="485.0">A</text><rect fill="rgb(71%,77%,83%)" height="82.0" stroke="black" width="140" x="740" y="525.0" /><text dy="15" style="font-size:12px;" x="740" y="525.0">Scatter (node11)</text><text dy="27" style="font-size:12px;" x="740" y="525.0" /><rect fill="#aa9999" height="20" stroke="grey" width="68" x="742" y="585.0" /><text dy="15" style="font-size:8px;" x="742" y="585.0">element</text><rect fill="#aa9999" height="20" stroke="grey" width="68" x="810" y="585.0" /><text dy="15" style="font-size:8px;" x="810" y="585.0">index</text><rect fill="#9999aa" height="20" stroke="grey" width="136" x="742" y="560.0" /><text dy="15" style="font-size:8px;" x="742" y="560.0">input</text><rect fill="rgb(83%,69%,75%)" height="505.0" stroke="black" width="180" x="920" y="450.0" /><text dy="15" style="font-size:12px;" x="920" y="450.0">Returns (node17)</text><text dy="27" style="font-size:12px;" x="920" y="450.0" /><rect fill="#aa9999" height="20" stroke="grey" width="176" x="922" y="933.0" /><text dy="15" style="font-size:8px;" x="922" y="933.0">reduction_0</text><rect fill="#9999aa" height="20" stroke="grey" width="58" x="922" y="485.0" /><text dy="15" style="font-size:8px;" x="922" y="485.0">a</text><rect fill="#9999aa" height="20" stroke="grey" width="58" x="980" y="485.0" /><text dy="15" style="font-size:8px;" x="980" y="485.0">a_index</text><rect fill="#9999aa" height="20" stroke="grey" width="58" x="1038" y="485.0" /><text dy="15" style="font-size:8px;" x="1038" y="485.0">A</text><rect fill="rgb(76%,71%,73%)" height="82.0" stroke="black" width="140" x="940" y="831.0" /><text dy="15" style="font-size:12px;" x="940" y="831.0">Reduction (node16)</text><text dy="27" style="font-size:12px;" x="940" y="831.0">operator: array</text><rect fill="#aa9999" height="20" stroke="grey" width="136" x="942" y="891.0" /><text dy="15" style="font-size:8px;" x="942" y="891.0">reduction output</text><rect fill="#9999aa" height="20" stroke="grey" width="68" x="942" y="866.0" /><text dy="15" style="font-size:8px;" x="942" y="866.0">cond input</text><rect fill="#9999aa" height="20" stroke="grey" width="68" x="1010" y="866.0" /><text dy="15" style="font-size:8px;" x="1010" y="866.0">value input</text><rect fill="rgb(71%,82%,71%)" height="82.0" stroke="black" width="140" x="940" y="729.0" /><text dy="15" style="font-size:12px;" x="940" y="729.0">Binary (node13)</text><text dy="27" style="font-size:12px;" x="940" y="729.0">operator: =</text><rect fill="#aa9999" height="20" stroke="grey" width="136" x="942" y="789.0" /><text dy="15" style="font-size:8px;" x="942" y="789.0">binary output (=)</text><rect fill="#9999aa" height="20" stroke="grey" width="68" x="942" y="764.0" /><text dy="15" style="font-size:8px;" x="942" y="764.0">left</text><rect fill="#9999aa" height="20" stroke="grey" width="68" x="1010" y="764.0" /><text dy="15" style="font-size:8px;" x="1010" y="764.0">right</text><rect fill="rgb(75%,78%,79%)" height="82.0" stroke="black" width="140" x="940" y="627.0" /><text dy="15" style="font-size:12px;" x="940" y="627.0">ArrayAccess (node15)</text><text dy="27" style="font-size:12px;" x="940" y="627.0" /><rect fill="#aa9999" height="20" stroke="grey" width="136" x="942" y="687.0" /><rect fill="#9999aa" height="20" stroke="grey" width="68" x="942" y="662.0" /><text dy="15" style="font-size:8px;" x="942" y="662.0">array</text><rect fill="#9999aa" height="20" stroke="grey" width="68" x="1010" y="662.0" /><text dy="15" style="font-size:8px;" x="1010" y="662.0">index</text><rect fill="rgb(75%,81%,75%)" height="82.0" stroke="black" width="140" x="940" y="525.0" /><text dy="15" style="font-size:12px;" x="940" y="525.0">Literal (node14)</text><text dy="27" style="font-size:12px;" x="940" y="525.0">value: 1</text><rect fill="#aa9999" height="20" stroke="grey" width="136" x="942" y="585.0" /><rect fill="rgb(84%,77%,73%)" height="622.0" stroke="black" width="420" x="1140" y="375.0" /><text dy="15" style="font-size:12px;" x="1140" y="375.0">LoopExpression (node26)</text><text dy="27" style="font-size:12px;" x="1140" y="375.0" /><rect fill="#aa9999" height="20" stroke="grey" width="416" x="1142" y="975.0" /><text dy="15" style="font-size:8px;" x="1142" y="975.0">reduction_0</text><rect fill="#9999aa" height="20" stroke="grey" width="416" x="1142" y="410.0" /><text dy="15" style="font-size:8px;" x="1142" y="410.0">A</text><rect fill="rgb(83%,74%,70%)" height="199.0" stroke="black" width="180" x="1160" y="450.0" /><text dy="15" style="font-size:12px;" x="1160" y="450.0">RangeGen (node20)</text><text dy="27" style="font-size:12px;" x="1160" y="450.0" /><rect fill="#aa9999" height="20" stroke="grey" width="88" x="1162" y="627.0" /><text dy="15" style="font-size:8px;" x="1162" y="627.0">a</text><rect fill="#aa9999" height="20" stroke="grey" width="88" x="1250" y="627.0" /><text dy="15" style="font-size:8px;" x="1250" y="627.0">a_index</text><rect fill="#9999aa" height="20" stroke="grey" width="176" x="1162" y="485.0" /><text dy="15" style="font-size:8px;" x="1162" y="485.0">A</text><rect fill="rgb(78%,73%,72%)" height="82.0" stroke="black" width="140" x="1180" y="525.0" /><text dy="15" style="font-size:12px;" x="1180" y="525.0">Scatter (node19)</text><text dy="27" style="font-size:12px;" x="1180" y="525.0" /><rect fill="#aa9999" height="20" stroke="grey" width="68" x="1182" y="585.0" /><text dy="15" style="font-size:8px;" x="1182" y="585.0">element</text><rect fill="#aa9999" height="20" stroke="grey" width="68" x="1250" y="585.0" /><text dy="15" style="font-size:8px;" x="1250" y="585.0">index</text><rect fill="#9999aa" height="20" stroke="grey" width="136" x="1182" y="560.0" /><text dy="15" style="font-size:8px;" x="1182" y="560.0">input</text><rect fill="rgb(75%,82%,70%)" height="505.0" stroke="black" width="180" x="1360" y="450.0" /><text dy="15" style="font-size:12px;" x="1360" y="450.0">Returns (node25)</text><text dy="27" style="font-size:12px;" x="1360" y="450.0" /><rect fill="#aa9999" height="20" stroke="grey" width="176" x="1362" y="933.0" /><text dy="15" style="font-size:8px;" x="1362" y="933.0">reduction_0</text><rect fill="#9999aa" height="20" stroke="grey" width="58" x="1362" y="485.0" /><text dy="15" style="font-size:8px;" x="1362" y="485.0">a</text><rect fill="#9999aa" height="20" stroke="grey" width="58" x="1420" y="485.0" /><text dy="15" style="font-size:8px;" x="1420" y="485.0">a_index</text><rect fill="#9999aa" height="20" stroke="grey" width="58" x="1478" y="485.0" /><text dy="15" style="font-size:8px;" x="1478" y="485.0">A</text><rect fill="rgb(71%,84%,71%)" height="82.0" stroke="black" width="140" x="1380" y="831.0" /><text dy="15" style="font-size:12px;" x="1380" y="831.0">Reduction (node24)</text><text dy="27" style="font-size:12px;" x="1380" y="831.0">operator: array</text><rect fill="#aa9999" height="20" stroke="grey" width="136" x="1382" y="891.0" /><text dy="15" style="font-size:8px;" x="1382" y="891.0">reduction output</text><rect fill="#9999aa" height="20" stroke="grey" width="68" x="1382" y="866.0" /><text dy="15" style="font-size:8px;" x="1382" y="866.0">cond input</text><rect fill="#9999aa" height="20" stroke="grey" width="68" x="1450" y="866.0" /><text dy="15" style="font-size:8px;" x="1450" y="866.0">value input</text><rect fill="rgb(82%,77%,82%)" height="82.0" stroke="black" width="140" x="1380" y="729.0" /><text dy="15" style="font-size:12px;" x="1380" y="729.0">Binary (node21)</text><text dy="27" style="font-size:12px;" x="1380" y="729.0">operator: &gt;</text><rect fill="#aa9999" height="20" stroke="grey" width="136" x="1382" y="789.0" /><text dy="15" style="font-size:8px;" x="1382" y="789.0">binary output (&gt;)</text><rect fill="#9999aa" height="20" stroke="grey" width="68" x="1382" y="764.0" /><text dy="15" style="font-size:8px;" x="1382" y="764.0">left</text><rect fill="#9999aa" height="20" stroke="grey" width="68" x="1450" y="764.0" /><text dy="15" style="font-size:8px;" x="1450" y="764.0">right</text><rect fill="rgb(81%,75%,80%)" height="82.0" stroke="black" width="140" x="1380" y="627.0" /><text dy="15" style="font-size:12px;" x="1380" y="627.0">ArrayAccess (node23)</text><text dy="27" style="font-size:12px;" x="1380" y="627.0" /><rect fill="#aa9999" height="20" stroke="grey" width="136" x="1382" y="687.0" /><rect fill="#9999aa" height="20" stroke="grey" width="68" x="1382" y="662.0" /><text dy="15" style="font-size:8px;" x="1382" y="662.0">array</text><rect fill="#9999aa" height="20" stroke="grey" width="68" x="1450" y="662.0" /><text dy="15" style="font-size:8px;" x="1450" y="662.0">index</text><rect fill="rgb(69%,83%,78%)" height="82.0" stroke="black" width="140" x="1380" y="525.0" /><text dy="15" style="font-size:12px;" x="1380" y="525.0">Literal (node22)</text><text dy="27" style="font-size:12px;" x="1380" y="525.0">value: 1</text><rect fill="#aa9999" height="20" stroke="grey" width="136" x="1382" y="585.0" /><rect fill="rgb(71%,70%,72%)" height="403.0" stroke="black" width="340" x="1600" y="300.0" /><text dy="15" style="font-size:12px;" x="1600" y="300.0">Body (node40)</text><text dy="27" style="font-size:12px;" x="1600" y="300.0" /><rect fill="#aa9999" height="20" stroke="grey" width="336" x="1602" y="681.0" /><rect fill="#9999aa" height="20" stroke="grey" width="84" x="1602" y="335.0" /><text dy="15" style="font-size:8px;" x="1602" y="335.0">Less</text><rect fill="#9999aa" height="20" stroke="grey" width="84" x="1686" y="335.0" /><text dy="15" style="font-size:8px;" x="1686" y="335.0">Same</text><rect fill="#9999aa" height="20" stroke="grey" width="84" x="1770" y="335.0" /><text dy="15" style="font-size:8px;" x="1770" y="335.0">More</text><rect fill="#9999aa" height="20" stroke="grey" width="84" x="1854" y="335.0" /><text dy="15" style="font-size:8px;" x="1854" y="335.0">A</text><rect fill="rgb(74%,77%,72%)" height="82.0" stroke="black" width="140" x="1620" y="579.0" /><text dy="15" style="font-size:12px;" x="1620" y="579.0">Binary (node29)</text><text dy="27" style="font-size:12px;" x="1620" y="579.0">operator: ||</text><rect fill="#aa9999" height="20" stroke="grey" width="136" x="1622" y="639.0" /><text dy="15" style="font-size:8px;" x="1622" y="639.0">binary output (||)</text><rect fill="#9999aa" height="20" stroke="grey" width="68" x="1622" y="614.0" /><text dy="15" style="font-size:8px;" x="1622" y="614.0">left</text><rect fill="#9999aa" height="20" stroke="grey" width="68" x="1690" y="614.0" /><text dy="15" style="font-size:8px;" x="1690" y="614.0">right</text><rect fill="rgb(76%,80%,76%)" height="82.0" stroke="black" width="140" x="1620" y="477.0" /><text dy="15" style="font-size:12px;" x="1620" y="477.0">Binary (node28)</text><text dy="27" style="font-size:12px;" x="1620" y="477.0">operator: ||</text><rect fill="#aa9999" height="20" stroke="grey" width="136" x="1622" y="537.0" /><text dy="15" style="font-size:8px;" x="1622" y="537.0">binary output (||)</text><rect fill="#9999aa" height="20" stroke="grey" width="68" x="1622" y="512.0" /><text dy="15" style="font-size:8px;" x="1622" y="512.0">left</text><rect fill="#9999aa" height="20" stroke="grey" width="68" x="1690" y="512.0" /><text dy="15" style="font-size:8px;" x="1690" y="512.0">right</text><rect fill="rgb(71%,73%,82%)" height="82.0" stroke="black" width="140" x="1780" y="477.0" /><text dy="15" style="font-size:12px;" x="1780" y="477.0">FunctionCall (node30)</text><text dy="27" style="font-size:12px;" x="1780" y="477.0">callee: sort</text><rect fill="#aa9999" height="20" stroke="grey" width="136" x="1782" y="537.0" /><rect fill="#9999aa" height="20" stroke="grey" width="136" x="1782" y="512.0" /><text dy="15" style="font-size:8px;" x="1782" y="512.0">A</text><rect fill="rgb(77%,72%,78%)" height="82.0" stroke="black" width="140" x="1620" y="375.0" /><text dy="15" style="font-size:12px;" x="1620" y="375.0">FunctionCall (node27)</text><text dy="27" style="font-size:12px;" x="1620" y="375.0">callee: sort</text><rect fill="#aa9999" height="20" stroke="grey" width="136" x="1622" y="435.0" /><rect fill="#9999aa" height="20" stroke="grey" width="136" x="1622" y="410.0" /><text dy="15" style="font-size:8px;" x="1622" y="410.0">A</text><rect fill="rgb(75%,69%,81%)" height="301.0" stroke="black" width="340" x="2000" y="150.0" /><text dy="15" style="font-size:12px;" x="2000" y="150.0">Condition (node33)</text><text dy="27" style="font-size:12px;" x="2000" y="150.0" /><rect fill="#aa9999" height="20" stroke="grey" width="336" x="2002" y="429.0" /><text dy="15" style="font-size:8px;" x="2002" y="429.0">cond #0</text><rect fill="#9999aa" height="20" stroke="grey" width="336" x="2002" y="185.0" /><text dy="15" style="font-size:8px;" x="2002" y="185.0">A</text><rect fill="rgb(71%,78%,73%)" height="82.0" stroke="black" width="140" x="2020" y="327.0" /><text dy="15" style="font-size:12px;" x="2020" y="327.0">Binary (node1)</text><text dy="27" style="font-size:12px;" x="2020" y="327.0">operator: &lt;=</text><rect fill="#aa9999" height="20" stroke="grey" width="136" x="2022" y="387.0" /><text dy="15" style="font-size:8px;" x="2022" y="387.0">binary output (&lt;=)</text><rect fill="#9999aa" height="20" stroke="grey" width="68" x="2022" y="362.0" /><text dy="15" style="font-size:8px;" x="2022" y="362.0">left</text><rect fill="#9999aa" height="20" stroke="grey" width="68" x="2090" y="362.0" /><text dy="15" style="font-size:8px;" x="2090" y="362.0">right</text><rect fill="rgb(72%,75%,71%)" height="82.0" stroke="black" width="140" x="2020" y="225.0" /><text dy="15" style="font-size:12px;" x="2020" y="225.0">FunctionCall (node0)</text><text dy="27" style="font-size:12px;" x="2020" y="225.0">callee: size</text><rect fill="#aa9999" height="20" stroke="grey" width="136" x="2022" y="285.0" /><rect fill="#9999aa" height="20" stroke="grey" width="136" x="2022" y="260.0" /><text dy="15" style="font-size:8px;" x="2022" y="260.0">array</text><rect fill="rgb(84%,69%,73%)" height="82.0" stroke="black" width="140" x="2180" y="225.0" /><text dy="15" style="font-size:12px;" x="2180" y="225.0">Literal (node2)</text><text dy="27" style="font-size:12px;" x="2180" y="225.0">value: 1</text><rect fill="#aa9999" height="20" stroke="grey" width="136" x="2182" y="285.0" /><rect fill="rgb(72%,70%,75%)" height="199.0" stroke="black" width="180" x="0" y="1217.0" /><text dy="15" style="font-size:12px;" x="0" y="1217.0">main (node38)</text><text dy="27" style="font-size:12px;" x="0" y="1217.0" /><rect fill="#aa9999" height="20" stroke="grey" width="176" x="2" y="1394.0" /><rect fill="#9999aa" height="20" stroke="grey" width="176" x="2" y="1252.0" /><text dy="15" style="font-size:8px;" x="2" y="1252.0">A</text><rect fill="rgb(82%,71%,78%)" height="82.0" stroke="black" width="140" x="20" y="1292.0" /><text dy="15" style="font-size:12px;" x="20" y="1292.0">FunctionCall (node37)</text><text dy="27" style="font-size:12px;" x="20" y="1292.0">callee: sort</text><rect fill="#aa9999" height="20" stroke="grey" width="136" x="22" y="1352.0" /><rect fill="#9999aa" height="20" stroke="grey" width="136" x="22" y="1327.0" /><text dy="15" style="font-size:8px;" x="22" y="1327.0">A</text><line fill="none" marker-end="url(#id1)" stroke="#222222" x1="110.0" x2="110.0" y1="195.0" y2="220.0" /><line fill="none" marker-end="url(#id1)" stroke="#222222" x1="1690.0" x2="1656.0" y1="455.0" y2="512.0" /><line fill="none" marker-end="url(#id1)" stroke="#222222" x1="1728.0" x2="1724.0" y1="355.0" y2="512.0" /><line fill="none" marker-end="url(#id1)" stroke="#222222" x1="1690.0" x2="1656.0" y1="557.0" y2="614.0" /><line fill="none" marker-end="url(#id1)" stroke="#222222" x1="1850.0" x2="1724.0" y1="557.0" y2="614.0" /><line fill="none" marker-end="url(#id1)" stroke="#222222" x1="1690.0" x2="1770.0" y1="659.0" y2="681.0" /><line fill="none" marker-end="url(#id1)" stroke="#222222" x1="1644.0" x2="1690.0" y1="355.0" y2="410.0" /><line fill="none" marker-end="url(#id1)" stroke="#222222" x1="1812.0" x2="1850.0" y1="355.0" y2="512.0" /><line fill="none" marker-end="url(#id1)" stroke="#222222" x1="370.0" x2="370.0" y1="505.0" y2="560.0" /><line fill="none" marker-end="url(#id1)" stroke="#222222" x1="336.0" x2="326.0" y1="605.0" y2="627.0" /><line fill="none" marker-end="url(#id1)" stroke="#222222" x1="404.0" x2="414.0" y1="605.0" y2="627.0" /><line fill="none" marker-end="url(#id1)" stroke="#222222" x1="511.0" x2="604.0" y1="505.0" y2="866.0" /><line fill="none" marker-end="url(#id1)" stroke="#222222" x1="511.0" x2="536.0" y1="505.0" y2="764.0" /><line fill="none" marker-end="url(#id1)" stroke="#222222" x1="570.0" x2="604.0" y1="707.0" y2="764.0" /><line fill="none" marker-end="url(#id1)" stroke="#222222" x1="627.0" x2="536.0" y1="505.0" y2="662.0" /><line fill="none" marker-end="url(#id1)" stroke="#222222" x1="570.0" x2="604.0" y1="605.0" y2="662.0" /><line fill="none" marker-end="url(#id1)" stroke="#222222" x1="570.0" x2="536.0" y1="809.0" y2="866.0" /><line fill="none" marker-end="url(#id1)" stroke="#222222" x1="570.0" x2="570.0" y1="911.0" y2="933.0" /><line fill="none" marker-end="url(#id1)" stroke="#222222" x1="810.0" x2="810.0" y1="505.0" y2="560.0" /><line fill="none" marker-end="url(#id1)" stroke="#222222" x1="776.0" x2="766.0" y1="605.0" y2="627.0" /><line fill="none" marker-end="url(#id1)" stroke="#222222" x1="844.0" x2="854.0" y1="605.0" y2="627.0" /><line fill="none" marker-end="url(#id1)" stroke="#222222" x1="951.0" x2="1044.0" y1="505.0" y2="866.0" /><line fill="none" marker-end="url(#id1)" stroke="#222222" x1="951.0" x2="976.0" y1="505.0" y2="764.0" /><line fill="none" marker-end="url(#id1)" stroke="#222222" x1="1010.0" x2="1044.0" y1="707.0" y2="764.0" /><line fill="none" marker-end="url(#id1)" stroke="#222222" x1="1067.0" x2="976.0" y1="505.0" y2="662.0" /><line fill="none" marker-end="url(#id1)" stroke="#222222" x1="1010.0" x2="1044.0" y1="605.0" y2="662.0" /><line fill="none" marker-end="url(#id1)" stroke="#222222" x1="1010.0" x2="976.0" y1="809.0" y2="866.0" /><line fill="none" marker-end="url(#id1)" stroke="#222222" x1="1010.0" x2="1010.0" y1="911.0" y2="933.0" /><line fill="none" marker-end="url(#id1)" stroke="#222222" x1="1250.0" x2="1250.0" y1="505.0" y2="560.0" /><line fill="none" marker-end="url(#id1)" stroke="#222222" x1="1216.0" x2="1206.0" y1="605.0" y2="627.0" /><line fill="none" marker-end="url(#id1)" stroke="#222222" x1="1284.0" x2="1294.0" y1="605.0" y2="627.0" /><line fill="none" marker-end="url(#id1)" stroke="#222222" x1="1391.0" x2="1484.0" y1="505.0" y2="866.0" /><line fill="none" marker-end="url(#id1)" stroke="#222222" x1="1391.0" x2="1416.0" y1="505.0" y2="764.0" /><line fill="none" marker-end="url(#id1)" stroke="#222222" x1="1450.0" x2="1484.0" y1="707.0" y2="764.0" /><line fill="none" marker-end="url(#id1)" stroke="#222222" x1="1507.0" x2="1416.0" y1="505.0" y2="662.0" /><line fill="none" marker-end="url(#id1)" stroke="#222222" x1="1450.0" x2="1484.0" y1="605.0" y2="662.0" /><line fill="none" marker-end="url(#id1)" stroke="#222222" x1="1450.0" x2="1416.0" y1="809.0" y2="866.0" /><line fill="none" marker-end="url(#id1)" stroke="#222222" x1="1450.0" x2="1450.0" y1="911.0" y2="933.0" /><line fill="none" marker-end="url(#id1)" stroke="#222222" x1="470.0" x2="464.5" y1="995.0" y2="1017.0" /><line fill="none" marker-end="url(#id1)" stroke="#222222" x1="910.0" x2="470.0" y1="355.0" y2="410.0" /><line fill="none" marker-end="url(#id1)" stroke="#222222" x1="910.0" x2="909.5" y1="995.0" y2="1017.0" /><line fill="none" marker-end="url(#id1)" stroke="#222222" x1="910.0" x2="910.0" y1="355.0" y2="410.0" /><line fill="none" marker-end="url(#id1)" stroke="#222222" x1="1350.0" x2="1354.5" y1="995.0" y2="1017.0" /><line fill="none" marker-end="url(#id1)" stroke="#222222" x1="910.0" x2="1350.0" y1="355.0" y2="410.0" /><line fill="none" marker-end="url(#id1)" stroke="#222222" x1="1090.0" x2="1090.0" y1="1079.0" y2="1101.0" /><line fill="none" marker-end="url(#id1)" stroke="#222222" x1="1090.0" x2="1090.0" y1="205.0" y2="260.0" /><line fill="none" marker-end="url(#id1)" stroke="#222222" x1="2090.0" x2="2056.0" y1="305.0" y2="362.0" /><line fill="none" marker-end="url(#id1)" stroke="#222222" x1="2250.0" x2="2124.0" y1="305.0" y2="362.0" /><line fill="none" marker-end="url(#id1)" stroke="#222222" x1="2090.0" x2="2170.0" y1="407.0" y2="429.0" /><line fill="none" marker-end="url(#id1)" stroke="#222222" x1="2170.0" x2="2090.0" y1="205.0" y2="260.0" /><line fill="none" marker-end="url(#id1)" stroke="#222222" x1="1190.0" x2="1190.0" y1="1163.0" y2="1185.0" /><line fill="none" marker-end="url(#id1)" stroke="#222222" x1="1190.0" x2="1190.0" y1="55.0" y2="110.0" /><line fill="none" marker-end="url(#id1)" stroke="#222222" x1="90.0" x2="90.0" y1="1372.0" y2="1394.0" /><line fill="none" marker-end="url(#id1)" stroke="#222222" x1="90.0" x2="90.0" y1="1272.0" y2="1327.0" /></svg>
