<svg baseProfile="full" height="1620.0" version="1.1" width="900" xmlns="http://www.w3.org/2000/svg" xmlns:ev="http://www.w3.org/2001/xml-events" xmlns:xlink="http://www.w3.org/1999/xlink"><defs><marker id="id1" markerHeight="15" markerWidth="15" orient="auto" refX="0" refY="0" viewBox="-5 -5 10 10"><polygon fill="#222222" points="5,0 0,2 0,-2" /></marker></defs><rect fill="rgb(80%,83%,71%)" height="739.0" stroke="black" width="780" x="0" y="0" /><text dy="15" style="font-size:12px;" x="0" y="0">Fib (node13)</text><text dy="27" style="font-size:12px;" x="0" y="0" /><rect fill="#aa9999" height="20" stroke="grey" width="776" x="2" y="717.0" /><rect fill="#9999aa" height="20" stroke="grey" width="776" x="2" y="35.0" /><text dy="15" style="font-size:8px;" x="2" y="35.0">M</text><rect fill="rgb(78%,75%,82%)" height="622.0" stroke="black" width="740" x="20" y="75.0" /><text dy="15" style="font-size:12px;" x="20" y="75.0">If (node9)</text><text dy="27" style="font-size:12px;" x="20" y="75.0" /><rect fill="#aa9999" height="20" stroke="grey" width="736" x="22" y="675.0" /><rect fill="#9999aa" height="20" stroke="grey" width="736" x="22" y="110.0" /><text dy="15" style="font-size:8px;" x="22" y="110.0">M</text><rect fill="rgb(76%,76%,70%)" height="82.0" stroke="black" width="140" x="40" y="150.0" /><text dy="15" style="font-size:12px;" x="40" y="150.0">Then (node11)</text><text dy="27" style="font-size:12px;" x="40" y="150.0" /><rect fill="#aa9999" height="20" stroke="grey" width="136" x="42" y="210.0" /><rect fill="#9999aa" height="20" stroke="grey" width="136" x="42" y="185.0" /><text dy="15" style="font-size:8px;" x="42" y="185.0">M</text><rect fill="rgb(74%,74%,76%)" height="505.0" stroke="black" width="340" x="200" y="150.0" /><text dy="15" style="font-size:12px;" x="200" y="150.0">Else (node12)</text><text dy="27" style="font-size:12px;" x="200" y="150.0" /><rect fill="#aa9999" height="20" stroke="grey" width="336" x="202" y="633.0" /><rect fill="#9999aa" height="20" stroke="grey" width="336" x="202" y="185.0" /><text dy="15" style="font-size:8px;" x="202" y="185.0">M</text><rect fill="rgb(81%,82%,81%)" height="82.0" stroke="black" width="140" x="220" y="531.0" /><text dy="15" style="font-size:12px;" x="220" y="531.0">Binary (node5)</text><text dy="27" style="font-size:12px;" x="220" y="531.0">operator: +</text><rect fill="#aa9999" height="20" stroke="grey" width="136" x="222" y="591.0" /><text dy="15" style="font-size:8px;" x="222" y="591.0">binary output (+)</text><rect fill="#9999aa" height="20" stroke="grey" width="68" x="222" y="566.0" /><text dy="15" style="font-size:8px;" x="222" y="566.0">left</text><rect fill="#9999aa" height="20" stroke="grey" width="68" x="290" y="566.0" /><text dy="15" style="font-size:8px;" x="290" y="566.0">right</text><rect fill="rgb(70%,81%,69%)" height="82.0" stroke="black" width="140" x="220" y="429.0" /><text dy="15" style="font-size:12px;" x="220" y="429.0">FunctionCall (node4)</text><text dy="27" style="font-size:12px;" x="220" y="429.0">callee: Fib</text><rect fill="#aa9999" height="20" stroke="grey" width="136" x="222" y="489.0" /><rect fill="#9999aa" height="20" stroke="grey" width="136" x="222" y="464.0" /><text dy="15" style="font-size:8px;" x="222" y="464.0">M</text><rect fill="rgb(71%,74%,78%)" height="82.0" stroke="black" width="140" x="380" y="429.0" /><text dy="15" style="font-size:12px;" x="380" y="429.0">FunctionCall (node8)</text><text dy="27" style="font-size:12px;" x="380" y="429.0">callee: Fib</text><rect fill="#aa9999" height="20" stroke="grey" width="136" x="382" y="489.0" /><rect fill="#9999aa" height="20" stroke="grey" width="136" x="382" y="464.0" /><text dy="15" style="font-size:8px;" x="382" y="464.0">M</text><rect fill="rgb(75%,78%,69%)" height="82.0" stroke="black" width="140" x="220" y="327.0" /><text dy="15" style="font-size:12px;" x="220" y="327.0">Binary (node2)</text><text dy="27" style="font-size:12px;" x="220" y="327.0">operator: -</text><rect fill="#aa9999" height="20" stroke="grey" width="136" x="222" y="387.0" /><text dy="15" style="font-size:8px;" x="222" y="387.0">binary output (-)</text><rect fill="#9999aa" height="20" stroke="grey" width="68" x="222" y="362.0" /><text dy="15" style="font-size:8px;" x="222" y="362.0">left</text><rect fill="#9999aa" height="20" stroke="grey" width="68" x="290" y="362.0" /><text dy="15" style="font-size:8px;" x="290" y="362.0">right</text><rect fill="rgb(79%,75%,76%)" height="82.0" stroke="black" width="140" x="380" y="327.0" /><text dy="15" style="font-size:12px;" x="380" y="327.0">Binary (node6)</text><text dy="27" style="font-size:12px;" x="380" y="327.0">operator: -</text><rect fill="#aa9999" height="20" stroke="grey" width="136" x="382" y="387.0" /><text dy="15" style="font-size:8px;" x="382" y="387.0">binary output (-)</text><rect fill="#9999aa" height="20" stroke="grey" width="68" x="382" y="362.0" /><text dy="15" style="font-size:8px;" x="382" y="362.0">left</text><rect fill="#9999aa" height="20" stroke="grey" width="68" x="450" y="362.0" /><text dy="15" style="font-size:8px;" x="450" y="362.0">right</text><rect fill="rgb(84%,78%,84%)" height="82.0" stroke="black" width="140" x="220" y="225.0" /><text dy="15" style="font-size:12px;" x="220" y="225.0">Literal (node3)</text><text dy="27" style="font-size:12px;" x="220" y="225.0">value: 1</text><rect fill="#aa9999" height="20" stroke="grey" width="136" x="222" y="285.0" /><rect fill="rgb(75%,72%,83%)" height="82.0" stroke="black" width="140" x="380" y="225.0" /><text dy="15" style="font-size:12px;" x="380" y="225.0">Literal (node7)</text><text dy="27" style="font-size:12px;" x="380" y="225.0">value: 2</text><rect fill="#aa9999" height="20" stroke="grey" width="136" x="382" y="285.0" /><rect fill="rgb(81%,78%,82%)" height="301.0" stroke="black" width="180" x="560" y="150.0" /><text dy="15" style="font-size:12px;" x="560" y="150.0">Condition (node10)</text><text dy="27" style="font-size:12px;" x="560" y="150.0" /><rect fill="#aa9999" height="20" stroke="grey" width="176" x="562" y="429.0" /><text dy="15" style="font-size:8px;" x="562" y="429.0">cond #0</text><rect fill="#9999aa" height="20" stroke="grey" width="176" x="562" y="185.0" /><text dy="15" style="font-size:8px;" x="562" y="185.0">M</text><rect fill="rgb(69%,70%,72%)" height="82.0" stroke="black" width="140" x="580" y="327.0" /><text dy="15" style="font-size:12px;" x="580" y="327.0">Binary (node0)</text><text dy="27" style="font-size:12px;" x="580" y="327.0">operator: &lt;</text><rect fill="#aa9999" height="20" stroke="grey" width="136" x="582" y="387.0" /><text dy="15" style="font-size:8px;" x="582" y="387.0">binary output (&lt;)</text><rect fill="#9999aa" height="20" stroke="grey" width="68" x="582" y="362.0" /><text dy="15" style="font-size:8px;" x="582" y="362.0">left</text><rect fill="#9999aa" height="20" stroke="grey" width="68" x="650" y="362.0" /><text dy="15" style="font-size:8px;" x="650" y="362.0">right</text><rect fill="rgb(80%,80%,74%)" height="82.0" stroke="black" width="140" x="580" y="225.0" /><text dy="15" style="font-size:12px;" x="580" y="225.0">Literal (node1)</text><text dy="27" style="font-size:12px;" x="580" y="225.0">value: 2</text><rect fill="#aa9999" height="20" stroke="grey" width="136" x="582" y="285.0" /><rect fill="rgb(83%,74%,72%)" height="871.0" stroke="black" width="900" x="0" y="749.0" /><text dy="15" style="font-size:12px;" x="0" y="749.0">main (node25)</text><text dy="27" style="font-size:12px;" x="0" y="749.0" /><rect fill="#aa9999" height="20" stroke="grey" width="896" x="2" y="1598.0" /><rect fill="#9999aa" height="20" stroke="grey" width="896" x="2" y="784.0" /><text dy="15" style="font-size:8px;" x="2" y="784.0">i</text><rect fill="rgb(84%,81%,70%)" height="754.0" stroke="black" width="860" x="20" y="824.0" /><text dy="15" style="font-size:12px;" x="20" y="824.0">Let (node24)</text><text dy="27" style="font-size:12px;" x="20" y="824.0" /><rect fill="#aa9999" height="20" stroke="grey" width="856" x="22" y="1556.0" /><rect fill="#9999aa" height="20" stroke="grey" width="856" x="22" y="859.0" /><text dy="15" style="font-size:8px;" x="22" y="859.0">i</text><rect fill="rgb(79%,72%,83%)" height="637.0" stroke="black" width="620" x="40" y="899.0" /><text dy="15" style="font-size:12px;" x="40" y="899.0">Init (node26)</text><text dy="27" style="font-size:12px;" x="40" y="899.0" /><rect fill="#aa9999" height="20" stroke="grey" width="616" x="42" y="1514.0" /><text dy="15" style="font-size:8px;" x="42" y="1514.0">A</text><rect fill="#9999aa" height="20" stroke="grey" width="616" x="42" y="934.0" /><text dy="15" style="font-size:8px;" x="42" y="934.0">i</text><rect fill="rgb(80%,78%,74%)" height="520.0" stroke="black" width="580" x="60" y="974.0" /><text dy="15" style="font-size:12px;" x="60" y="974.0">LoopExpression (node21)</text><text dy="27" style="font-size:12px;" x="60" y="974.0" /><rect fill="#aa9999" height="20" stroke="grey" width="576" x="62" y="1472.0" /><text dy="15" style="font-size:8px;" x="62" y="1472.0">reduction_0</text><rect fill="#9999aa" height="20" stroke="grey" width="576" x="62" y="1009.0" /><text dy="15" style="font-size:8px;" x="62" y="1009.0">i</text><rect fill="rgb(73%,82%,78%)" height="403.0" stroke="black" width="180" x="80" y="1049.0" /><text dy="15" style="font-size:12px;" x="80" y="1049.0">RangeGen (node17)</text><text dy="27" style="font-size:12px;" x="80" y="1049.0" /><rect fill="#aa9999" height="20" stroke="grey" width="88" x="82" y="1430.0" /><text dy="15" style="font-size:8px;" x="82" y="1430.0">n</text><rect fill="#aa9999" height="20" stroke="grey" width="88" x="170" y="1430.0" /><text dy="15" style="font-size:8px;" x="170" y="1430.0">n_index</text><rect fill="#9999aa" height="20" stroke="grey" width="176" x="82" y="1084.0" /><text dy="15" style="font-size:8px;" x="82" y="1084.0">i</text><rect fill="rgb(76%,70%,74%)" height="82.0" stroke="black" width="140" x="100" y="1328.0" /><text dy="15" style="font-size:12px;" x="100" y="1328.0">Scatter (node16)</text><text dy="27" style="font-size:12px;" x="100" y="1328.0" /><rect fill="#aa9999" height="20" stroke="grey" width="68" x="102" y="1388.0" /><text dy="15" style="font-size:8px;" x="102" y="1388.0">element</text><rect fill="#aa9999" height="20" stroke="grey" width="68" x="170" y="1388.0" /><text dy="15" style="font-size:8px;" x="170" y="1388.0">index</text><rect fill="#9999aa" height="20" stroke="grey" width="136" x="102" y="1363.0" /><text dy="15" style="font-size:8px;" x="102" y="1363.0">input</text><rect fill="rgb(83%,72%,72%)" height="82.0" stroke="black" width="140" x="100" y="1226.0" /><text dy="15" style="font-size:12px;" x="100" y="1226.0">Range (node15)</text><text dy="27" style="font-size:12px;" x="100" y="1226.0" /><rect fill="#aa9999" height="20" stroke="grey" width="136" x="102" y="1286.0" /><text dy="15" style="font-size:8px;" x="102" y="1286.0">range output</text><rect fill="#9999aa" height="20" stroke="grey" width="68" x="102" y="1261.0" /><text dy="15" style="font-size:8px;" x="102" y="1261.0">left boundary</text><rect fill="#9999aa" height="20" stroke="grey" width="68" x="170" y="1261.0" /><text dy="15" style="font-size:8px;" x="170" y="1261.0">right boundary</text><rect fill="rgb(81%,78%,82%)" height="82.0" stroke="black" width="140" x="100" y="1124.0" /><text dy="15" style="font-size:12px;" x="100" y="1124.0">Literal (node14)</text><text dy="27" style="font-size:12px;" x="100" y="1124.0">value: 1</text><rect fill="#aa9999" height="20" stroke="grey" width="136" x="102" y="1184.0" /><rect fill="rgb(72%,81%,76%)" height="301.0" stroke="black" width="340" x="280" y="1049.0" /><text dy="15" style="font-size:12px;" x="280" y="1049.0">Returns (node20)</text><text dy="27" style="font-size:12px;" x="280" y="1049.0" /><rect fill="#aa9999" height="20" stroke="grey" width="336" x="282" y="1328.0" /><text dy="15" style="font-size:8px;" x="282" y="1328.0">reduction_0</text><rect fill="#9999aa" height="20" stroke="grey" width="112" x="282" y="1084.0" /><text dy="15" style="font-size:8px;" x="282" y="1084.0">n</text><rect fill="#9999aa" height="20" stroke="grey" width="112" x="394" y="1084.0" /><text dy="15" style="font-size:8px;" x="394" y="1084.0">n_index</text><rect fill="#9999aa" height="20" stroke="grey" width="112" x="506" y="1084.0" /><text dy="15" style="font-size:8px;" x="506" y="1084.0">i</text><rect fill="rgb(72%,81%,76%)" height="82.0" stroke="black" width="140" x="300" y="1226.0" /><text dy="15" style="font-size:12px;" x="300" y="1226.0">Reduction (node19)</text><text dy="27" style="font-size:12px;" x="300" y="1226.0">operator: array</text><rect fill="#aa9999" height="20" stroke="grey" width="136" x="302" y="1286.0" /><text dy="15" style="font-size:8px;" x="302" y="1286.0">reduction output</text><rect fill="#9999aa" height="20" stroke="grey" width="68" x="302" y="1261.0" /><text dy="15" style="font-size:8px;" x="302" y="1261.0">cond input</text><rect fill="#9999aa" height="20" stroke="grey" width="68" x="370" y="1261.0" /><text dy="15" style="font-size:8px;" x="370" y="1261.0">value input</text><rect fill="rgb(79%,76%,70%)" height="82.0" stroke="black" width="140" x="300" y="1124.0" /><text dy="15" style="font-size:12px;" x="300" y="1124.0">Literal (node27)</text><text dy="27" style="font-size:12px;" x="300" y="1124.0">value: True</text><rect fill="#aa9999" height="20" stroke="grey" width="136" x="302" y="1184.0" /><rect fill="rgb(74%,74%,83%)" height="82.0" stroke="black" width="140" x="460" y="1124.0" /><text dy="15" style="font-size:12px;" x="460" y="1124.0">FunctionCall (node18)</text><text dy="27" style="font-size:12px;" x="460" y="1124.0">callee: Fib</text><rect fill="#aa9999" height="20" stroke="grey" width="136" x="462" y="1184.0" /><rect fill="#9999aa" height="20" stroke="grey" width="136" x="462" y="1159.0" /><text dy="15" style="font-size:8px;" x="462" y="1159.0">M</text><rect fill="rgb(72%,71%,71%)" height="301.0" stroke="black" width="180" x="680" y="899.0" /><text dy="15" style="font-size:12px;" x="680" y="899.0">Body (node28)</text><text dy="27" style="font-size:12px;" x="680" y="899.0" /><rect fill="#aa9999" height="20" stroke="grey" width="176" x="682" y="1178.0" /><rect fill="#9999aa" height="20" stroke="grey" width="88" x="682" y="934.0" /><text dy="15" style="font-size:8px;" x="682" y="934.0">A</text><rect fill="#9999aa" height="20" stroke="grey" width="88" x="770" y="934.0" /><text dy="15" style="font-size:8px;" x="770" y="934.0">i</text><rect fill="rgb(78%,69%,70%)" height="82.0" stroke="black" width="140" x="700" y="1076.0" /><text dy="15" style="font-size:12px;" x="700" y="1076.0">RecordInit (node23)</text><text dy="27" style="font-size:12px;" x="700" y="1076.0" /><rect fill="#aa9999" height="20" stroke="grey" width="136" x="702" y="1136.0" /><text dy="15" style="font-size:8px;" x="702" y="1136.0">initialized record</text><rect fill="#9999aa" height="20" stroke="grey" width="68" x="702" y="1111.0" /><text dy="15" style="font-size:8px;" x="702" y="1111.0">A</text><rect fill="#9999aa" height="20" stroke="grey" width="68" x="770" y="1111.0" /><text dy="15" style="font-size:8px;" x="770" y="1111.0">length</text><rect fill="rgb(80%,71%,83%)" height="82.0" stroke="black" width="140" x="700" y="974.0" /><text dy="15" style="font-size:12px;" x="700" y="974.0">FunctionCall (node22)</text><text dy="27" style="font-size:12px;" x="700" y="974.0">callee: size</text><rect fill="#aa9999" height="20" stroke="grey" width="136" x="702" y="1034.0" /><rect fill="#9999aa" height="20" stroke="grey" width="136" x="702" y="1009.0" /><text dy="15" style="font-size:8px;" x="702" y="1009.0">array</text><line fill="none" marker-end="url(#id1)" stroke="#222222" x1="110.0" x2="110.0" y1="195.0" y2="220.0" /><line fill="none" marker-end="url(#id1)" stroke="#222222" x1="290.0" x2="256.0" y1="509.0" y2="566.0" /><line fill="none" marker-end="url(#id1)" stroke="#222222" x1="450.0" x2="324.0" y1="509.0" y2="566.0" /><line fill="none" marker-end="url(#id1)" stroke="#222222" x1="290.0" x2="370.0" y1="611.0" y2="633.0" /><line fill="none" marker-end="url(#id1)" stroke="#222222" x1="370.0" x2="256.0" y1="205.0" y2="362.0" /><line fill="none" marker-end="url(#id1)" stroke="#222222" x1="290.0" x2="324.0" y1="305.0" y2="362.0" /><line fill="none" marker-end="url(#id1)" stroke="#222222" x1="290.0" x2="290.0" y1="407.0" y2="464.0" /><line fill="none" marker-end="url(#id1)" stroke="#222222" x1="370.0" x2="416.0" y1="205.0" y2="362.0" /><line fill="none" marker-end="url(#id1)" stroke="#222222" x1="450.0" x2="484.0" y1="305.0" y2="362.0" /><line fill="none" marker-end="url(#id1)" stroke="#222222" x1="450.0" x2="450.0" y1="407.0" y2="464.0" /><line fill="none" marker-end="url(#id1)" stroke="#222222" x1="650.0" x2="616.0" y1="205.0" y2="362.0" /><line fill="none" marker-end="url(#id1)" stroke="#222222" x1="650.0" x2="684.0" y1="305.0" y2="362.0" /><line fill="none" marker-end="url(#id1)" stroke="#222222" x1="650.0" x2="650.0" y1="407.0" y2="429.0" /><line fill="none" marker-end="url(#id1)" stroke="#222222" x1="390.0" x2="390.0" y1="695.0" y2="717.0" /><line fill="none" marker-end="url(#id1)" stroke="#222222" x1="390.0" x2="390.0" y1="55.0" y2="110.0" /><line fill="none" marker-end="url(#id1)" stroke="#222222" x1="726.0" x2="736.0" y1="954.0" y2="1111.0" /><line fill="none" marker-end="url(#id1)" stroke="#222222" x1="770.0" x2="804.0" y1="1054.0" y2="1111.0" /><line fill="none" marker-end="url(#id1)" stroke="#222222" x1="770.0" x2="770.0" y1="1156.0" y2="1178.0" /><line fill="none" marker-end="url(#id1)" stroke="#222222" x1="726.0" x2="770.0" y1="954.0" y2="1009.0" /><line fill="none" marker-end="url(#id1)" stroke="#222222" x1="170.0" x2="136.0" y1="1204.0" y2="1261.0" /><line fill="none" marker-end="url(#id1)" stroke="#222222" x1="170.0" x2="204.0" y1="1104.0" y2="1261.0" /><line fill="none" marker-end="url(#id1)" stroke="#222222" x1="170.0" x2="170.0" y1="1306.0" y2="1363.0" /><line fill="none" marker-end="url(#id1)" stroke="#222222" x1="136.0" x2="126.0" y1="1408.0" y2="1430.0" /><line fill="none" marker-end="url(#id1)" stroke="#222222" x1="204.0" x2="214.0" y1="1408.0" y2="1430.0" /><line fill="none" marker-end="url(#id1)" stroke="#222222" x1="530.0" x2="404.0" y1="1204.0" y2="1261.0" /><line fill="none" marker-end="url(#id1)" stroke="#222222" x1="370.0" x2="336.0" y1="1204.0" y2="1261.0" /><line fill="none" marker-end="url(#id1)" stroke="#222222" x1="370.0" x2="450.0" y1="1306.0" y2="1328.0" /><line fill="none" marker-end="url(#id1)" stroke="#222222" x1="338.0" x2="530.0" y1="1104.0" y2="1159.0" /><line fill="none" marker-end="url(#id1)" stroke="#222222" x1="350.0" x2="350.0" y1="1492.0" y2="1514.0" /><line fill="none" marker-end="url(#id1)" stroke="#222222" x1="350.0" x2="350.0" y1="954.0" y2="1009.0" /><line fill="none" marker-end="url(#id1)" stroke="#222222" x1="450.0" x2="450.0" y1="1576.0" y2="1598.0" /><line fill="none" marker-end="url(#id1)" stroke="#222222" x1="450.0" x2="450.0" y1="804.0" y2="859.0" /></svg>
