<svg baseProfile="full" height="403.0" version="1.1" width="180" xmlns="http://www.w3.org/2000/svg" xmlns:ev="http://www.w3.org/2001/xml-events" xmlns:xlink="http://www.w3.org/1999/xlink"><defs><marker id="id1" markerHeight="15" markerWidth="15" orient="auto" refX="0" refY="0" viewBox="-5 -5 10 10"><polygon fill="#222222" points="5,0 0,2 0,-2" /></marker></defs><rect fill="rgb(82%,78%,83%)" height="403.0" stroke="black" width="180" x="0" y="0" /><text dy="15" style="font-size:12px;" x="0" y="0">main (node3)</text><text dy="27" style="font-size:12px;" x="0" y="0" /><rect fill="#aa9999" height="20" stroke="grey" width="176" x="2" y="381.0" /><rect fill="#9999aa" height="20" stroke="grey" width="176" x="2" y="35.0" /><text dy="15" style="font-size:8px;" x="2" y="35.0">S</text><rect fill="rgb(83%,79%,75%)" height="82.0" stroke="black" width="140" x="20" y="279.0" /><text dy="15" style="font-size:12px;" x="20" y="279.0">RecordAccess (node2)</text><text dy="27" style="font-size:12px;" x="20" y="279.0" /><rect fill="#aa9999" height="20" stroke="grey" width="136" x="22" y="339.0" /><rect fill="#9999aa" height="20" stroke="grey" width="136" x="22" y="314.0" /><text dy="15" style="font-size:8px;" x="22" y="314.0">record</text><rect fill="rgb(81%,73%,69%)" height="82.0" stroke="black" width="140" x="20" y="177.0" /><text dy="15" style="font-size:12px;" x="20" y="177.0">ArrayAccess (node1)</text><text dy="27" style="font-size:12px;" x="20" y="177.0" /><rect fill="#aa9999" height="20" stroke="grey" width="136" x="22" y="237.0" /><rect fill="#9999aa" height="20" stroke="grey" width="68" x="22" y="212.0" /><text dy="15" style="font-size:8px;" x="22" y="212.0">array</text><rect fill="#9999aa" height="20" stroke="grey" width="68" x="90" y="212.0" /><text dy="15" style="font-size:8px;" x="90" y="212.0">index</text><rect fill="rgb(78%,84%,81%)" height="82.0" stroke="black" width="140" x="20" y="75.0" /><text dy="15" style="font-size:12px;" x="20" y="75.0">Literal (node0)</text><text dy="27" style="font-size:12px;" x="20" y="75.0">value: 1</text><rect fill="#aa9999" height="20" stroke="grey" width="136" x="22" y="135.0" /><line fill="none" marker-end="url(#id1)" stroke="#222222" x1="90.0" x2="90.0" y1="257.0" y2="314.0" /><line fill="none" marker-end="url(#id1)" stroke="#222222" x1="90.0" x2="56.0" y1="55.0" y2="212.0" /><line fill="none" marker-end="url(#id1)" stroke="#222222" x1="90.0" x2="124.0" y1="155.0" y2="212.0" /><line fill="none" marker-end="url(#id1)" stroke="#222222" x1="90.0" x2="90.0" y1="359.0" y2="381.0" /></svg>
