<svg baseProfile="full" height="535.0" version="1.1" width="780" xmlns="http://www.w3.org/2000/svg" xmlns:ev="http://www.w3.org/2001/xml-events" xmlns:xlink="http://www.w3.org/1999/xlink"><defs><marker id="id1" markerHeight="15" markerWidth="15" orient="auto" refX="0" refY="0" viewBox="-5 -5 10 10"><polygon fill="#222222" points="5,0 0,2 0,-2" /></marker></defs><rect fill="rgb(79%,82%,71%)" height="535.0" stroke="black" width="780" x="0" y="0" /><text dy="15" style="font-size:12px;" x="0" y="0">main (node7)</text><text dy="27" style="font-size:12px;" x="0" y="0" /><rect fill="#aa9999" height="20" stroke="grey" width="776" x="2" y="513.0" /><rect fill="#9999aa" height="20" stroke="grey" width="776" x="2" y="35.0" /><text dy="15" style="font-size:8px;" x="2" y="35.0">N</text><rect fill="rgb(81%,79%,78%)" height="418.0" stroke="black" width="740" x="20" y="75.0" /><text dy="15" style="font-size:12px;" x="20" y="75.0">Let (node6)</text><text dy="27" style="font-size:12px;" x="20" y="75.0" /><rect fill="#aa9999" height="20" stroke="grey" width="736" x="22" y="471.0" /><rect fill="#9999aa" height="20" stroke="grey" width="736" x="22" y="110.0" /><text dy="15" style="font-size:8px;" x="22" y="110.0">N</text><rect fill="rgb(76%,72%,74%)" height="301.0" stroke="black" width="500" x="40" y="150.0" /><text dy="15" style="font-size:12px;" x="40" y="150.0">Init (node8)</text><text dy="27" style="font-size:12px;" x="40" y="150.0" /><rect fill="#aa9999" height="20" stroke="grey" width="496" x="42" y="429.0" /><text dy="15" style="font-size:8px;" x="42" y="429.0">A</text><rect fill="#9999aa" height="20" stroke="grey" width="496" x="42" y="185.0" /><text dy="15" style="font-size:8px;" x="42" y="185.0">N</text><rect fill="rgb(70%,79%,82%)" height="82.0" stroke="black" width="140" x="60" y="327.0" /><text dy="15" style="font-size:12px;" x="60" y="327.0">ArrayInit (node3)</text><text dy="27" style="font-size:12px;" x="60" y="327.0" /><rect fill="#aa9999" height="20" stroke="grey" width="136" x="62" y="387.0" /><text dy="15" style="font-size:8px;" x="62" y="387.0">initialized array</text><rect fill="#9999aa" height="20" stroke="grey" width="45" x="62" y="362.0" /><text dy="15" style="font-size:8px;" x="62" y="362.0">item#0</text><rect fill="#9999aa" height="20" stroke="grey" width="45" x="107" y="362.0" /><text dy="15" style="font-size:8px;" x="107" y="362.0">item#1</text><rect fill="#9999aa" height="20" stroke="grey" width="45" x="152" y="362.0" /><text dy="15" style="font-size:8px;" x="152" y="362.0">item#2</text><rect fill="rgb(77%,78%,74%)" height="82.0" stroke="black" width="140" x="60" y="225.0" /><text dy="15" style="font-size:12px;" x="60" y="225.0">ArrayInit (node0)</text><text dy="27" style="font-size:12px;" x="60" y="225.0" /><rect fill="#aa9999" height="20" stroke="grey" width="136" x="62" y="285.0" /><text dy="15" style="font-size:8px;" x="62" y="285.0">initialized array</text><rect fill="#9999aa" height="20" stroke="grey" width="45" x="62" y="260.0" /><text dy="15" style="font-size:8px;" x="62" y="260.0">item#0</text><rect fill="#9999aa" height="20" stroke="grey" width="45" x="107" y="260.0" /><text dy="15" style="font-size:8px;" x="107" y="260.0">item#1</text><rect fill="#9999aa" height="20" stroke="grey" width="45" x="152" y="260.0" /><text dy="15" style="font-size:8px;" x="152" y="260.0">item#2</text><rect fill="rgb(75%,79%,76%)" height="82.0" stroke="black" width="140" x="220" y="225.0" /><text dy="15" style="font-size:12px;" x="220" y="225.0">ArrayInit (node1)</text><text dy="27" style="font-size:12px;" x="220" y="225.0" /><rect fill="#aa9999" height="20" stroke="grey" width="136" x="222" y="285.0" /><text dy="15" style="font-size:8px;" x="222" y="285.0">initialized array</text><rect fill="#9999aa" height="20" stroke="grey" width="45" x="222" y="260.0" /><text dy="15" style="font-size:8px;" x="222" y="260.0">item#0</text><rect fill="#9999aa" height="20" stroke="grey" width="45" x="267" y="260.0" /><text dy="15" style="font-size:8px;" x="267" y="260.0">item#1</text><rect fill="#9999aa" height="20" stroke="grey" width="45" x="312" y="260.0" /><text dy="15" style="font-size:8px;" x="312" y="260.0">item#2</text><rect fill="rgb(71%,77%,74%)" height="82.0" stroke="black" width="140" x="380" y="225.0" /><text dy="15" style="font-size:12px;" x="380" y="225.0">ArrayInit (node2)</text><text dy="27" style="font-size:12px;" x="380" y="225.0" /><rect fill="#aa9999" height="20" stroke="grey" width="136" x="382" y="285.0" /><text dy="15" style="font-size:8px;" x="382" y="285.0">initialized array</text><rect fill="#9999aa" height="20" stroke="grey" width="45" x="382" y="260.0" /><text dy="15" style="font-size:8px;" x="382" y="260.0">item#0</text><rect fill="#9999aa" height="20" stroke="grey" width="45" x="427" y="260.0" /><text dy="15" style="font-size:8px;" x="427" y="260.0">item#1</text><rect fill="#9999aa" height="20" stroke="grey" width="45" x="472" y="260.0" /><text dy="15" style="font-size:8px;" x="472" y="260.0">item#2</text><rect fill="rgb(81%,78%,79%)" height="301.0" stroke="black" width="180" x="560" y="150.0" /><text dy="15" style="font-size:12px;" x="560" y="150.0">Body (node9)</text><text dy="27" style="font-size:12px;" x="560" y="150.0" /><rect fill="#aa9999" height="20" stroke="grey" width="176" x="562" y="429.0" /><rect fill="#9999aa" height="20" stroke="grey" width="88" x="562" y="185.0" /><text dy="15" style="font-size:8px;" x="562" y="185.0">A</text><rect fill="#9999aa" height="20" stroke="grey" width="88" x="650" y="185.0" /><text dy="15" style="font-size:8px;" x="650" y="185.0">N</text><rect fill="rgb(73%,81%,75%)" height="82.0" stroke="black" width="140" x="580" y="327.0" /><text dy="15" style="font-size:12px;" x="580" y="327.0">ArrayAccess (node5)</text><text dy="27" style="font-size:12px;" x="580" y="327.0" /><rect fill="#aa9999" height="20" stroke="grey" width="136" x="582" y="387.0" /><rect fill="#9999aa" height="20" stroke="grey" width="68" x="582" y="362.0" /><text dy="15" style="font-size:8px;" x="582" y="362.0">array</text><rect fill="#9999aa" height="20" stroke="grey" width="68" x="650" y="362.0" /><text dy="15" style="font-size:8px;" x="650" y="362.0">index</text><rect fill="rgb(72%,84%,73%)" height="82.0" stroke="black" width="140" x="580" y="225.0" /><text dy="15" style="font-size:12px;" x="580" y="225.0">Literal (node4)</text><text dy="27" style="font-size:12px;" x="580" y="225.0">value: 2</text><rect fill="#aa9999" height="20" stroke="grey" width="136" x="582" y="285.0" /><line fill="none" marker-end="url(#id1)" stroke="#222222" x1="650.0" x2="650.0" y1="407.0" y2="429.0" /><line fill="none" marker-end="url(#id1)" stroke="#222222" x1="606.0" x2="616.0" y1="205.0" y2="362.0" /><line fill="none" marker-end="url(#id1)" stroke="#222222" x1="650.0" x2="684.0" y1="305.0" y2="362.0" /><line fill="none" marker-end="url(#id1)" stroke="#222222" x1="290.0" x2="84.5" y1="205.0" y2="260.0" /><line fill="none" marker-end="url(#id1)" stroke="#222222" x1="290.0" x2="129.5" y1="205.0" y2="260.0" /><line fill="none" marker-end="url(#id1)" stroke="#222222" x1="290.0" x2="174.5" y1="205.0" y2="260.0" /><line fill="none" marker-end="url(#id1)" stroke="#222222" x1="130.0" x2="84.5" y1="305.0" y2="362.0" /><line fill="none" marker-end="url(#id1)" stroke="#222222" x1="290.0" x2="244.5" y1="205.0" y2="260.0" /><line fill="none" marker-end="url(#id1)" stroke="#222222" x1="290.0" x2="289.5" y1="205.0" y2="260.0" /><line fill="none" marker-end="url(#id1)" stroke="#222222" x1="290.0" x2="334.5" y1="205.0" y2="260.0" /><line fill="none" marker-end="url(#id1)" stroke="#222222" x1="290.0" x2="129.5" y1="305.0" y2="362.0" /><line fill="none" marker-end="url(#id1)" stroke="#222222" x1="290.0" x2="404.5" y1="205.0" y2="260.0" /><line fill="none" marker-end="url(#id1)" stroke="#222222" x1="290.0" x2="449.5" y1="205.0" y2="260.0" /><line fill="none" marker-end="url(#id1)" stroke="#222222" x1="290.0" x2="494.5" y1="205.0" y2="260.0" /><line fill="none" marker-end="url(#id1)" stroke="#222222" x1="450.0" x2="174.5" y1="305.0" y2="362.0" /><line fill="none" marker-end="url(#id1)" stroke="#222222" x1="130.0" x2="290.0" y1="407.0" y2="429.0" /><line fill="none" marker-end="url(#id1)" stroke="#222222" x1="390.0" x2="390.0" y1="491.0" y2="513.0" /><line fill="none" marker-end="url(#id1)" stroke="#222222" x1="390.0" x2="390.0" y1="55.0" y2="110.0" /></svg>
