<svg baseProfile="full" height="637.0" version="1.1" width="620" xmlns="http://www.w3.org/2000/svg" xmlns:ev="http://www.w3.org/2001/xml-events" xmlns:xlink="http://www.w3.org/1999/xlink"><defs><marker id="id1" markerHeight="15" markerWidth="15" orient="auto" refX="0" refY="0" viewBox="-5 -5 10 10"><polygon fill="#222222" points="5,0 0,2 0,-2" /></marker></defs><rect fill="rgb(73%,74%,74%)" height="637.0" stroke="black" width="620" x="0" y="0" /><text dy="15" style="font-size:12px;" x="0" y="0">main (node6)</text><text dy="27" style="font-size:12px;" x="0" y="0" /><rect fill="#aa9999" height="20" stroke="grey" width="616" x="2" y="615.0" /><rect fill="#9999aa" height="20" stroke="grey" width="308" x="2" y="35.0" /><text dy="15" style="font-size:8px;" x="2" y="35.0">a</text><rect fill="#9999aa" height="20" stroke="grey" width="308" x="310" y="35.0" /><text dy="15" style="font-size:8px;" x="310" y="35.0">b</text><rect fill="rgb(81%,71%,71%)" height="82.0" stroke="black" width="140" x="20" y="513.0" /><text dy="15" style="font-size:12px;" x="20" y="513.0">Unary (node5)</text><text dy="27" style="font-size:12px;" x="20" y="513.0">operator: +</text><rect fill="#aa9999" height="20" stroke="grey" width="136" x="22" y="573.0" /><text dy="15" style="font-size:8px;" x="22" y="573.0">unary (+) output</text><rect fill="#9999aa" height="20" stroke="grey" width="136" x="22" y="548.0" /><text dy="15" style="font-size:8px;" x="22" y="548.0">unary (+) input</text><rect fill="rgb(74%,81%,70%)" height="418.0" stroke="black" width="580" x="20" y="75.0" /><text dy="15" style="font-size:12px;" x="20" y="75.0">Let (node4)</text><text dy="27" style="font-size:12px;" x="20" y="75.0" /><rect fill="#aa9999" height="20" stroke="grey" width="576" x="22" y="471.0" /><text dy="15" style="font-size:8px;" x="22" y="471.0">unary (+) input</text><rect fill="#9999aa" height="20" stroke="grey" width="288" x="22" y="110.0" /><text dy="15" style="font-size:8px;" x="22" y="110.0">a</text><rect fill="#9999aa" height="20" stroke="grey" width="288" x="310" y="110.0" /><text dy="15" style="font-size:8px;" x="310" y="110.0">b</text><rect fill="rgb(76%,75%,69%)" height="301.0" stroke="black" width="340" x="40" y="150.0" /><text dy="15" style="font-size:12px;" x="40" y="150.0">Init (node7)</text><text dy="27" style="font-size:12px;" x="40" y="150.0" /><rect fill="#aa9999" height="20" stroke="grey" width="168" x="42" y="429.0" /><text dy="15" style="font-size:8px;" x="42" y="429.0">c</text><rect fill="#aa9999" height="20" stroke="grey" width="168" x="210" y="429.0" /><text dy="15" style="font-size:8px;" x="210" y="429.0">d</text><rect fill="#9999aa" height="20" stroke="grey" width="168" x="42" y="185.0" /><text dy="15" style="font-size:8px;" x="42" y="185.0">a</text><rect fill="#9999aa" height="20" stroke="grey" width="168" x="210" y="185.0" /><text dy="15" style="font-size:8px;" x="210" y="185.0">b</text><rect fill="rgb(73%,70%,81%)" height="82.0" stroke="black" width="140" x="60" y="327.0" /><text dy="15" style="font-size:12px;" x="60" y="327.0">Binary (node0)</text><text dy="27" style="font-size:12px;" x="60" y="327.0">operator: +</text><rect fill="#aa9999" height="20" stroke="grey" width="136" x="62" y="387.0" /><text dy="15" style="font-size:8px;" x="62" y="387.0">binary output (+)</text><rect fill="#9999aa" height="20" stroke="grey" width="68" x="62" y="362.0" /><text dy="15" style="font-size:8px;" x="62" y="362.0">left</text><rect fill="#9999aa" height="20" stroke="grey" width="68" x="130" y="362.0" /><text dy="15" style="font-size:8px;" x="130" y="362.0">right</text><rect fill="rgb(78%,76%,84%)" height="82.0" stroke="black" width="140" x="220" y="327.0" /><text dy="15" style="font-size:12px;" x="220" y="327.0">Binary (node2)</text><text dy="27" style="font-size:12px;" x="220" y="327.0">operator: +</text><rect fill="#aa9999" height="20" stroke="grey" width="136" x="222" y="387.0" /><text dy="15" style="font-size:8px;" x="222" y="387.0">binary output (+)</text><rect fill="#9999aa" height="20" stroke="grey" width="68" x="222" y="362.0" /><text dy="15" style="font-size:8px;" x="222" y="362.0">left</text><rect fill="#9999aa" height="20" stroke="grey" width="68" x="290" y="362.0" /><text dy="15" style="font-size:8px;" x="290" y="362.0">right</text><rect fill="rgb(80%,71%,82%)" height="82.0" stroke="black" width="140" x="60" y="225.0" /><text dy="15" style="font-size:12px;" x="60" y="225.0">Binary (node1)</text><text dy="27" style="font-size:12px;" x="60" y="225.0">operator: -</text><rect fill="#aa9999" height="20" stroke="grey" width="136" x="62" y="285.0" /><text dy="15" style="font-size:8px;" x="62" y="285.0">binary output (-)</text><rect fill="#9999aa" height="20" stroke="grey" width="68" x="62" y="260.0" /><text dy="15" style="font-size:8px;" x="62" y="260.0">left</text><rect fill="#9999aa" height="20" stroke="grey" width="68" x="130" y="260.0" /><text dy="15" style="font-size:8px;" x="130" y="260.0">right</text><rect fill="rgb(74%,80%,80%)" height="199.0" stroke="black" width="180" x="400" y="150.0" /><text dy="15" style="font-size:12px;" x="400" y="150.0">Body (node8)</text><text dy="27" style="font-size:12px;" x="400" y="150.0" /><rect fill="#aa9999" height="20" stroke="grey" width="176" x="402" y="327.0" /><text dy="15" style="font-size:8px;" x="402" y="327.0">unary (+) input</text><rect fill="#9999aa" height="20" stroke="grey" width="44" x="402" y="185.0" /><text dy="15" style="font-size:8px;" x="402" y="185.0">c</text><rect fill="#9999aa" height="20" stroke="grey" width="44" x="446" y="185.0" /><text dy="15" style="font-size:8px;" x="446" y="185.0">d</text><rect fill="#9999aa" height="20" stroke="grey" width="44" x="490" y="185.0" /><text dy="15" style="font-size:8px;" x="490" y="185.0">a</text><rect fill="#9999aa" height="20" stroke="grey" width="44" x="534" y="185.0" /><text dy="15" style="font-size:8px;" x="534" y="185.0">b</text><rect fill="rgb(83%,77%,74%)" height="82.0" stroke="black" width="140" x="420" y="225.0" /><text dy="15" style="font-size:12px;" x="420" y="225.0">Binary (node3)</text><text dy="27" style="font-size:12px;" x="420" y="225.0">operator: +</text><rect fill="#aa9999" height="20" stroke="grey" width="136" x="422" y="285.0" /><text dy="15" style="font-size:8px;" x="422" y="285.0">binary output (+)</text><rect fill="#9999aa" height="20" stroke="grey" width="68" x="422" y="260.0" /><text dy="15" style="font-size:8px;" x="422" y="260.0">left</text><rect fill="#9999aa" height="20" stroke="grey" width="68" x="490" y="260.0" /><text dy="15" style="font-size:8px;" x="490" y="260.0">right</text><line fill="none" marker-end="url(#id1)" stroke="#222222" x1="424.0" x2="456.0" y1="205.0" y2="260.0" /><line fill="none" marker-end="url(#id1)" stroke="#222222" x1="468.0" x2="524.0" y1="205.0" y2="260.0" /><line fill="none" marker-end="url(#id1)" stroke="#222222" x1="490.0" x2="490.0" y1="305.0" y2="327.0" /><line fill="none" marker-end="url(#id1)" stroke="#222222" x1="126.0" x2="96.0" y1="205.0" y2="362.0" /><line fill="none" marker-end="url(#id1)" stroke="#222222" x1="294.0" x2="164.0" y1="205.0" y2="362.0" /><line fill="none" marker-end="url(#id1)" stroke="#222222" x1="130.0" x2="126.0" y1="407.0" y2="429.0" /><line fill="none" marker-end="url(#id1)" stroke="#222222" x1="126.0" x2="96.0" y1="205.0" y2="260.0" /><line fill="none" marker-end="url(#id1)" stroke="#222222" x1="294.0" x2="164.0" y1="205.0" y2="260.0" /><line fill="none" marker-end="url(#id1)" stroke="#222222" x1="130.0" x2="256.0" y1="305.0" y2="362.0" /><line fill="none" marker-end="url(#id1)" stroke="#222222" x1="130.0" x2="324.0" y1="407.0" y2="362.0" /><line fill="none" marker-end="url(#id1)" stroke="#222222" x1="290.0" x2="294.0" y1="407.0" y2="429.0" /><line fill="none" marker-end="url(#id1)" stroke="#222222" x1="310.0" x2="90.0" y1="491.0" y2="548.0" /><line fill="none" marker-end="url(#id1)" stroke="#222222" x1="90.0" x2="310.0" y1="593.0" y2="615.0" /><line fill="none" marker-end="url(#id1)" stroke="#222222" x1="156.0" x2="166.0" y1="55.0" y2="110.0" /><line fill="none" marker-end="url(#id1)" stroke="#222222" x1="464.0" x2="454.0" y1="55.0" y2="110.0" /></svg>
