<svg baseProfile="full" height="871.0" version="1.1" width="1580" xmlns="http://www.w3.org/2000/svg" xmlns:ev="http://www.w3.org/2001/xml-events" xmlns:xlink="http://www.w3.org/1999/xlink"><defs><marker id="id1" markerHeight="15" markerWidth="15" orient="auto" refX="0" refY="0" viewBox="-5 -5 10 10"><polygon fill="#222222" points="5,0 0,2 0,-2" /></marker></defs><rect fill="rgb(80%,70%,78%)" height="871.0" stroke="black" width="1580" x="0" y="0" /><text dy="15" style="font-size:12px;" x="0" y="0">main (node18)</text><text dy="27" style="font-size:12px;" x="0" y="0" /><rect fill="#aa9999" height="20" stroke="grey" width="1576" x="2" y="849.0" /><rect fill="#9999aa" height="20" stroke="grey" width="1576" x="2" y="35.0" /><text dy="15" style="font-size:8px;" x="2" y="35.0">A</text><rect fill="rgb(70%,77%,81%)" height="754.0" stroke="black" width="1540" x="20" y="75.0" /><text dy="15" style="font-size:12px;" x="20" y="75.0">Let (node17)</text><text dy="27" style="font-size:12px;" x="20" y="75.0" /><rect fill="#aa9999" height="20" stroke="grey" width="1536" x="22" y="807.0" /><rect fill="#9999aa" height="20" stroke="grey" width="1536" x="22" y="110.0" /><text dy="15" style="font-size:8px;" x="22" y="110.0">A</text><rect fill="rgb(83%,81%,74%)" height="199.0" stroke="black" width="180" x="40" y="150.0" /><text dy="15" style="font-size:12px;" x="40" y="150.0">Init (node19)</text><text dy="27" style="font-size:12px;" x="40" y="150.0" /><rect fill="#aa9999" height="20" stroke="grey" width="176" x="42" y="327.0" /><text dy="15" style="font-size:8px;" x="42" y="327.0">s</text><rect fill="#9999aa" height="20" stroke="grey" width="176" x="42" y="185.0" /><text dy="15" style="font-size:8px;" x="42" y="185.0">A</text><rect fill="rgb(70%,80%,82%)" height="82.0" stroke="black" width="140" x="60" y="225.0" /><text dy="15" style="font-size:12px;" x="60" y="225.0">Literal (node0)</text><text dy="27" style="font-size:12px;" x="60" y="225.0">value: 0</text><rect fill="#aa9999" height="20" stroke="grey" width="136" x="62" y="285.0" /><rect fill="rgb(71%,71%,75%)" height="637.0" stroke="black" width="1300" x="240" y="150.0" /><text dy="15" style="font-size:12px;" x="240" y="150.0">Body (node20)</text><text dy="27" style="font-size:12px;" x="240" y="150.0" /><rect fill="#aa9999" height="20" stroke="grey" width="1296" x="242" y="765.0" /><rect fill="#9999aa" height="20" stroke="grey" width="648" x="242" y="185.0" /><text dy="15" style="font-size:8px;" x="242" y="185.0">s</text><rect fill="#9999aa" height="20" stroke="grey" width="648" x="890" y="185.0" /><text dy="15" style="font-size:8px;" x="890" y="185.0">A</text><rect fill="rgb(84%,78%,71%)" height="520.0" stroke="black" width="1260" x="260" y="225.0" /><text dy="15" style="font-size:12px;" x="260" y="225.0">LoopExpression (node16)</text><text dy="27" style="font-size:12px;" x="260" y="225.0" /><rect fill="#aa9999" height="20" stroke="grey" width="1256" x="262" y="723.0" /><text dy="15" style="font-size:8px;" x="262" y="723.0">reduction_0</text><rect fill="#9999aa" height="20" stroke="grey" width="628" x="262" y="260.0" /><text dy="15" style="font-size:8px;" x="262" y="260.0">s</text><rect fill="#9999aa" height="20" stroke="grey" width="628" x="890" y="260.0" /><text dy="15" style="font-size:8px;" x="890" y="260.0">A</text><rect fill="rgb(81%,82%,73%)" height="403.0" stroke="black" width="340" x="280" y="300.0" /><text dy="15" style="font-size:12px;" x="280" y="300.0">Body (node13)</text><text dy="27" style="font-size:12px;" x="280" y="300.0" /><rect fill="#aa9999" height="20" stroke="grey" width="336" x="282" y="681.0" /><text dy="15" style="font-size:8px;" x="282" y="681.0">s</text><rect fill="#9999aa" height="20" stroke="grey" width="56" x="282" y="335.0" /><text dy="15" style="font-size:8px;" x="282" y="335.0">i</text><rect fill="#9999aa" height="20" stroke="grey" width="56" x="338" y="335.0" /><text dy="15" style="font-size:8px;" x="338" y="335.0">i_index</text><rect fill="#9999aa" height="20" stroke="grey" width="56" x="394" y="335.0" /><text dy="15" style="font-size:8px;" x="394" y="335.0">j</text><rect fill="#9999aa" height="20" stroke="grey" width="56" x="450" y="335.0" /><text dy="15" style="font-size:8px;" x="450" y="335.0">j_index</text><rect fill="#9999aa" height="20" stroke="grey" width="56" x="506" y="335.0" /><text dy="15" style="font-size:8px;" x="506" y="335.0">s</text><rect fill="#9999aa" height="20" stroke="grey" width="56" x="562" y="335.0" /><text dy="15" style="font-size:8px;" x="562" y="335.0">A</text><rect fill="rgb(76%,75%,71%)" height="82.0" stroke="black" width="140" x="300" y="579.0" /><text dy="15" style="font-size:12px;" x="300" y="579.0">Binary (node11)</text><text dy="27" style="font-size:12px;" x="300" y="579.0">operator: +</text><rect fill="#aa9999" height="20" stroke="grey" width="136" x="302" y="639.0" /><text dy="15" style="font-size:8px;" x="302" y="639.0">binary output (+)</text><rect fill="#9999aa" height="20" stroke="grey" width="68" x="302" y="614.0" /><text dy="15" style="font-size:8px;" x="302" y="614.0">left</text><rect fill="#9999aa" height="20" stroke="grey" width="68" x="370" y="614.0" /><text dy="15" style="font-size:8px;" x="370" y="614.0">right</text><rect fill="rgb(71%,81%,83%)" height="82.0" stroke="black" width="140" x="300" y="477.0" /><text dy="15" style="font-size:12px;" x="300" y="477.0">OldValue (node10)</text><text dy="27" style="font-size:12px;" x="300" y="477.0" /><rect fill="#aa9999" height="20" stroke="grey" width="136" x="302" y="537.0" /><rect fill="#9999aa" height="20" stroke="grey" width="136" x="302" y="512.0" /><rect fill="rgb(71%,71%,76%)" height="82.0" stroke="black" width="140" x="460" y="477.0" /><text dy="15" style="font-size:12px;" x="460" y="477.0">ArrayAccess (node21)</text><text dy="27" style="font-size:12px;" x="460" y="477.0" /><rect fill="#aa9999" height="20" stroke="grey" width="136" x="462" y="537.0" /><rect fill="#9999aa" height="20" stroke="grey" width="68" x="462" y="512.0" /><text dy="15" style="font-size:8px;" x="462" y="512.0">array</text><rect fill="#9999aa" height="20" stroke="grey" width="68" x="530" y="512.0" /><text dy="15" style="font-size:8px;" x="530" y="512.0">index</text><rect fill="rgb(76%,73%,77%)" height="82.0" stroke="black" width="140" x="300" y="375.0" /><text dy="15" style="font-size:12px;" x="300" y="375.0">ArrayAccess (node12)</text><text dy="27" style="font-size:12px;" x="300" y="375.0" /><rect fill="#aa9999" height="20" stroke="grey" width="136" x="302" y="435.0" /><rect fill="#9999aa" height="20" stroke="grey" width="68" x="302" y="410.0" /><text dy="15" style="font-size:8px;" x="302" y="410.0">array</text><rect fill="#9999aa" height="20" stroke="grey" width="68" x="370" y="410.0" /><text dy="15" style="font-size:8px;" x="370" y="410.0">index</text><rect fill="rgb(69%,78%,80%)" height="403.0" stroke="black" width="660" x="640" y="300.0" /><text dy="15" style="font-size:12px;" x="640" y="300.0">RangeGen (node9)</text><text dy="27" style="font-size:12px;" x="640" y="300.0" /><rect fill="#aa9999" height="20" stroke="grey" width="164" x="642" y="681.0" /><text dy="15" style="font-size:8px;" x="642" y="681.0">i</text><rect fill="#aa9999" height="20" stroke="grey" width="164" x="806" y="681.0" /><text dy="15" style="font-size:8px;" x="806" y="681.0">i_index</text><rect fill="#aa9999" height="20" stroke="grey" width="164" x="970" y="681.0" /><text dy="15" style="font-size:8px;" x="970" y="681.0">j</text><rect fill="#aa9999" height="20" stroke="grey" width="164" x="1134" y="681.0" /><text dy="15" style="font-size:8px;" x="1134" y="681.0">j_index</text><rect fill="#9999aa" height="20" stroke="grey" width="328" x="642" y="335.0" /><text dy="15" style="font-size:8px;" x="642" y="335.0">s</text><rect fill="#9999aa" height="20" stroke="grey" width="328" x="970" y="335.0" /><text dy="15" style="font-size:8px;" x="970" y="335.0">A</text><rect fill="rgb(77%,76%,81%)" height="82.0" stroke="black" width="140" x="660" y="579.0" /><text dy="15" style="font-size:12px;" x="660" y="579.0">Scatter (node4)</text><text dy="27" style="font-size:12px;" x="660" y="579.0" /><rect fill="#aa9999" height="20" stroke="grey" width="68" x="662" y="639.0" /><text dy="15" style="font-size:8px;" x="662" y="639.0">element</text><rect fill="#aa9999" height="20" stroke="grey" width="68" x="730" y="639.0" /><text dy="15" style="font-size:8px;" x="730" y="639.0">index</text><rect fill="#9999aa" height="20" stroke="grey" width="136" x="662" y="614.0" /><text dy="15" style="font-size:8px;" x="662" y="614.0">input</text><rect fill="rgb(82%,76%,78%)" height="82.0" stroke="black" width="140" x="820" y="579.0" /><text dy="15" style="font-size:12px;" x="820" y="579.0">Scatter (node8)</text><text dy="27" style="font-size:12px;" x="820" y="579.0" /><rect fill="#aa9999" height="20" stroke="grey" width="68" x="822" y="639.0" /><text dy="15" style="font-size:8px;" x="822" y="639.0">element</text><rect fill="#aa9999" height="20" stroke="grey" width="68" x="890" y="639.0" /><text dy="15" style="font-size:8px;" x="890" y="639.0">index</text><rect fill="#9999aa" height="20" stroke="grey" width="136" x="822" y="614.0" /><text dy="15" style="font-size:8px;" x="822" y="614.0">input</text><rect fill="rgb(73%,80%,69%)" height="82.0" stroke="black" width="140" x="660" y="477.0" /><text dy="15" style="font-size:12px;" x="660" y="477.0">Range (node3)</text><text dy="27" style="font-size:12px;" x="660" y="477.0" /><rect fill="#aa9999" height="20" stroke="grey" width="136" x="662" y="537.0" /><text dy="15" style="font-size:8px;" x="662" y="537.0">range output</text><rect fill="#9999aa" height="20" stroke="grey" width="68" x="662" y="512.0" /><text dy="15" style="font-size:8px;" x="662" y="512.0">left boundary</text><rect fill="#9999aa" height="20" stroke="grey" width="68" x="730" y="512.0" /><text dy="15" style="font-size:8px;" x="730" y="512.0">right boundary</text><rect fill="rgb(84%,84%,84%)" height="82.0" stroke="black" width="140" x="820" y="477.0" /><text dy="15" style="font-size:12px;" x="820" y="477.0">Range (node7)</text><text dy="27" style="font-size:12px;" x="820" y="477.0" /><rect fill="#aa9999" height="20" stroke="grey" width="136" x="822" y="537.0" /><text dy="15" style="font-size:8px;" x="822" y="537.0">range output</text><rect fill="#9999aa" height="20" stroke="grey" width="68" x="822" y="512.0" /><text dy="15" style="font-size:8px;" x="822" y="512.0">left boundary</text><rect fill="#9999aa" height="20" stroke="grey" width="68" x="890" y="512.0" /><text dy="15" style="font-size:8px;" x="890" y="512.0">right boundary</text><rect fill="rgb(72%,75%,74%)" height="82.0" stroke="black" width="140" x="660" y="375.0" /><text dy="15" style="font-size:12px;" x="660" y="375.0">Literal (node1)</text><text dy="27" style="font-size:12px;" x="660" y="375.0">value: 1</text><rect fill="#aa9999" height="20" stroke="grey" width="136" x="662" y="435.0" /><rect fill="rgb(75%,71%,79%)" height="82.0" stroke="black" width="140" x="820" y="375.0" /><text dy="15" style="font-size:12px;" x="820" y="375.0">Literal (node2)</text><text dy="27" style="font-size:12px;" x="820" y="375.0">value: 100</text><rect fill="#aa9999" height="20" stroke="grey" width="136" x="822" y="435.0" /><rect fill="rgb(73%,72%,83%)" height="82.0" stroke="black" width="140" x="980" y="375.0" /><text dy="15" style="font-size:12px;" x="980" y="375.0">Literal (node5)</text><text dy="27" style="font-size:12px;" x="980" y="375.0">value: 1</text><rect fill="#aa9999" height="20" stroke="grey" width="136" x="982" y="435.0" /><rect fill="rgb(69%,78%,72%)" height="82.0" stroke="black" width="140" x="1140" y="375.0" /><text dy="15" style="font-size:12px;" x="1140" y="375.0">Literal (node6)</text><text dy="27" style="font-size:12px;" x="1140" y="375.0">value: 100</text><rect fill="#aa9999" height="20" stroke="grey" width="136" x="1142" y="435.0" /><rect fill="rgb(81%,70%,80%)" height="301.0" stroke="black" width="180" x="1320" y="300.0" /><text dy="15" style="font-size:12px;" x="1320" y="300.0">Returns (node15)</text><text dy="27" style="font-size:12px;" x="1320" y="300.0" /><rect fill="#aa9999" height="20" stroke="grey" width="176" x="1322" y="579.0" /><text dy="15" style="font-size:8px;" x="1322" y="579.0">reduction_0</text><rect fill="#9999aa" height="20" stroke="grey" width="29" x="1322" y="335.0" /><text dy="15" style="font-size:8px;" x="1322" y="335.0">i</text><rect fill="#9999aa" height="20" stroke="grey" width="29" x="1351" y="335.0" /><text dy="15" style="font-size:8px;" x="1351" y="335.0">i_index</text><rect fill="#9999aa" height="20" stroke="grey" width="29" x="1380" y="335.0" /><text dy="15" style="font-size:8px;" x="1380" y="335.0">j</text><rect fill="#9999aa" height="20" stroke="grey" width="29" x="1409" y="335.0" /><text dy="15" style="font-size:8px;" x="1409" y="335.0">j_index</text><rect fill="#9999aa" height="20" stroke="grey" width="29" x="1438" y="335.0" /><text dy="15" style="font-size:8px;" x="1438" y="335.0">s</text><rect fill="#9999aa" height="20" stroke="grey" width="29" x="1467" y="335.0" /><text dy="15" style="font-size:8px;" x="1467" y="335.0">A</text><rect fill="rgb(79%,76%,79%)" height="82.0" stroke="black" width="140" x="1340" y="477.0" /><text dy="15" style="font-size:12px;" x="1340" y="477.0">Reduction (node14)</text><text dy="27" style="font-size:12px;" x="1340" y="477.0">operator: value</text><rect fill="#aa9999" height="20" stroke="grey" width="136" x="1342" y="537.0" /><text dy="15" style="font-size:8px;" x="1342" y="537.0">reduction output</text><rect fill="#9999aa" height="20" stroke="grey" width="68" x="1342" y="512.0" /><text dy="15" style="font-size:8px;" x="1342" y="512.0">cond input</text><rect fill="#9999aa" height="20" stroke="grey" width="68" x="1410" y="512.0" /><text dy="15" style="font-size:8px;" x="1410" y="512.0">value input</text><rect fill="rgb(83%,75%,74%)" height="82.0" stroke="black" width="140" x="1340" y="375.0" /><text dy="15" style="font-size:12px;" x="1340" y="375.0">Literal (node22)</text><text dy="27" style="font-size:12px;" x="1340" y="375.0">value: True</text><rect fill="#aa9999" height="20" stroke="grey" width="136" x="1342" y="435.0" /><line fill="none" marker-end="url(#id1)" stroke="#222222" x1="730.0" x2="696.0" y1="455.0" y2="512.0" /><line fill="none" marker-end="url(#id1)" stroke="#222222" x1="890.0" x2="764.0" y1="455.0" y2="512.0" /><line fill="none" marker-end="url(#id1)" stroke="#222222" x1="730.0" x2="730.0" y1="557.0" y2="614.0" /><line fill="none" marker-end="url(#id1)" stroke="#222222" x1="696.0" x2="724.0" y1="659.0" y2="681.0" /><line fill="none" marker-end="url(#id1)" stroke="#222222" x1="764.0" x2="888.0" y1="659.0" y2="681.0" /><line fill="none" marker-end="url(#id1)" stroke="#222222" x1="1050.0" x2="856.0" y1="455.0" y2="512.0" /><line fill="none" marker-end="url(#id1)" stroke="#222222" x1="1210.0" x2="924.0" y1="455.0" y2="512.0" /><line fill="none" marker-end="url(#id1)" stroke="#222222" x1="890.0" x2="890.0" y1="557.0" y2="614.0" /><line fill="none" marker-end="url(#id1)" stroke="#222222" x1="856.0" x2="1052.0" y1="659.0" y2="681.0" /><line fill="none" marker-end="url(#id1)" stroke="#222222" x1="924.0" x2="1216.0" y1="659.0" y2="681.0" /><line fill="none" marker-end="url(#id1)" stroke="#222222" x1="534.0" x2="370.0" y1="355.0" y2="512.0" /><line fill="none" marker-end="url(#id1)" stroke="#222222" x1="370.0" x2="336.0" y1="557.0" y2="614.0" /><line fill="none" marker-end="url(#id1)" stroke="#222222" x1="530.0" x2="404.0" y1="557.0" y2="614.0" /><line fill="none" marker-end="url(#id1)" stroke="#222222" x1="590.0" x2="336.0" y1="355.0" y2="410.0" /><line fill="none" marker-end="url(#id1)" stroke="#222222" x1="310.0" x2="404.0" y1="355.0" y2="410.0" /><line fill="none" marker-end="url(#id1)" stroke="#222222" x1="422.0" x2="564.0" y1="355.0" y2="512.0" /><line fill="none" marker-end="url(#id1)" stroke="#222222" x1="370.0" x2="450.0" y1="659.0" y2="681.0" /><line fill="none" marker-end="url(#id1)" stroke="#222222" x1="370.0" x2="496.0" y1="455.0" y2="512.0" /><line fill="none" marker-end="url(#id1)" stroke="#222222" x1="1452.5" x2="1444.0" y1="355.0" y2="512.0" /><line fill="none" marker-end="url(#id1)" stroke="#222222" x1="1410.0" x2="1376.0" y1="455.0" y2="512.0" /><line fill="none" marker-end="url(#id1)" stroke="#222222" x1="1410.0" x2="1410.0" y1="557.0" y2="579.0" /><line fill="none" marker-end="url(#id1)" stroke="#222222" x1="890.0" x2="890.0" y1="743.0" y2="765.0" /><line fill="none" marker-end="url(#id1)" stroke="#222222" x1="566.0" x2="576.0" y1="205.0" y2="260.0" /><line fill="none" marker-end="url(#id1)" stroke="#222222" x1="1214.0" x2="1204.0" y1="205.0" y2="260.0" /><line fill="none" marker-end="url(#id1)" stroke="#222222" x1="130.0" x2="130.0" y1="305.0" y2="327.0" /><line fill="none" marker-end="url(#id1)" stroke="#222222" x1="790.0" x2="790.0" y1="827.0" y2="849.0" /><line fill="none" marker-end="url(#id1)" stroke="#222222" x1="790.0" x2="790.0" y1="55.0" y2="110.0" /></svg>
