<svg baseProfile="full" height="637.0" version="1.1" width="1180" xmlns="http://www.w3.org/2000/svg" xmlns:ev="http://www.w3.org/2001/xml-events" xmlns:xlink="http://www.w3.org/1999/xlink"><defs><marker id="id1" markerHeight="15" markerWidth="15" orient="auto" refX="0" refY="0" viewBox="-5 -5 10 10"><polygon fill="#222222" points="5,0 0,2 0,-2" /></marker></defs><rect fill="rgb(81%,84%,70%)" height="637.0" stroke="black" width="1180" x="0" y="0" /><text dy="15" style="font-size:12px;" x="0" y="0">main (node16)</text><text dy="27" style="font-size:12px;" x="0" y="0" /><rect fill="#aa9999" height="20" stroke="grey" width="1176" x="2" y="615.0" /><rect fill="#9999aa" height="20" stroke="grey" width="1176" x="2" y="35.0" /><text dy="15" style="font-size:8px;" x="2" y="35.0">M</text><rect fill="rgb(79%,72%,71%)" height="520.0" stroke="black" width="1140" x="20" y="75.0" /><text dy="15" style="font-size:12px;" x="20" y="75.0">LoopExpression (node15)</text><text dy="27" style="font-size:12px;" x="20" y="75.0" /><rect fill="#aa9999" height="20" stroke="grey" width="1136" x="22" y="573.0" /><text dy="15" style="font-size:8px;" x="22" y="573.0">reduction_0</text><rect fill="#9999aa" height="20" stroke="grey" width="1136" x="22" y="110.0" /><text dy="15" style="font-size:8px;" x="22" y="110.0">M</text><rect fill="rgb(77%,83%,69%)" height="301.0" stroke="black" width="180" x="40" y="150.0" /><text dy="15" style="font-size:12px;" x="40" y="150.0">Init (node6)</text><text dy="27" style="font-size:12px;" x="40" y="150.0" /><rect fill="#aa9999" height="20" stroke="grey" width="176" x="42" y="429.0" /><text dy="15" style="font-size:8px;" x="42" y="429.0">z</text><rect fill="#9999aa" height="20" stroke="grey" width="176" x="42" y="185.0" /><text dy="15" style="font-size:8px;" x="42" y="185.0">M</text><rect fill="rgb(84%,70%,69%)" height="82.0" stroke="black" width="140" x="60" y="327.0" /><text dy="15" style="font-size:12px;" x="60" y="327.0">Binary (node4)</text><text dy="27" style="font-size:12px;" x="60" y="327.0">operator: +</text><rect fill="#aa9999" height="20" stroke="grey" width="136" x="62" y="387.0" /><text dy="15" style="font-size:8px;" x="62" y="387.0">binary output (+)</text><rect fill="#9999aa" height="20" stroke="grey" width="68" x="62" y="362.0" /><text dy="15" style="font-size:8px;" x="62" y="362.0">left</text><rect fill="#9999aa" height="20" stroke="grey" width="68" x="130" y="362.0" /><text dy="15" style="font-size:8px;" x="130" y="362.0">right</text><rect fill="rgb(81%,74%,81%)" height="82.0" stroke="black" width="140" x="60" y="225.0" /><text dy="15" style="font-size:12px;" x="60" y="225.0">Literal (node5)</text><text dy="27" style="font-size:12px;" x="60" y="225.0">value: 1</text><rect fill="#aa9999" height="20" stroke="grey" width="136" x="62" y="285.0" /><rect fill="rgb(79%,81%,77%)" height="301.0" stroke="black" width="340" x="240" y="150.0" /><text dy="15" style="font-size:12px;" x="240" y="150.0">Body (node9)</text><text dy="27" style="font-size:12px;" x="240" y="150.0" /><rect fill="#aa9999" height="20" stroke="grey" width="168" x="242" y="429.0" /><text dy="15" style="font-size:8px;" x="242" y="429.0">R</text><rect fill="#aa9999" height="20" stroke="grey" width="168" x="410" y="429.0" /><text dy="15" style="font-size:8px;" x="410" y="429.0">S</text><rect fill="#9999aa" height="20" stroke="grey" width="84" x="242" y="185.0" /><text dy="15" style="font-size:8px;" x="242" y="185.0">i</text><rect fill="#9999aa" height="20" stroke="grey" width="84" x="326" y="185.0" /><text dy="15" style="font-size:8px;" x="326" y="185.0">i_index</text><rect fill="#9999aa" height="20" stroke="grey" width="84" x="410" y="185.0" /><text dy="15" style="font-size:8px;" x="410" y="185.0">z</text><rect fill="#9999aa" height="20" stroke="grey" width="84" x="494" y="185.0" /><text dy="15" style="font-size:8px;" x="494" y="185.0">M</text><rect fill="rgb(76%,71%,75%)" height="82.0" stroke="black" width="140" x="260" y="327.0" /><text dy="15" style="font-size:12px;" x="260" y="327.0">Binary (node7)</text><text dy="27" style="font-size:12px;" x="260" y="327.0">operator: +</text><rect fill="#aa9999" height="20" stroke="grey" width="136" x="262" y="387.0" /><text dy="15" style="font-size:8px;" x="262" y="387.0">binary output (+)</text><rect fill="#9999aa" height="20" stroke="grey" width="68" x="262" y="362.0" /><text dy="15" style="font-size:8px;" x="262" y="362.0">left</text><rect fill="#9999aa" height="20" stroke="grey" width="68" x="330" y="362.0" /><text dy="15" style="font-size:8px;" x="330" y="362.0">right</text><rect fill="rgb(71%,78%,81%)" height="82.0" stroke="black" width="140" x="420" y="327.0" /><text dy="15" style="font-size:12px;" x="420" y="327.0">Binary (node8)</text><text dy="27" style="font-size:12px;" x="420" y="327.0">operator: +</text><rect fill="#aa9999" height="20" stroke="grey" width="136" x="422" y="387.0" /><text dy="15" style="font-size:8px;" x="422" y="387.0">binary output (+)</text><rect fill="#9999aa" height="20" stroke="grey" width="68" x="422" y="362.0" /><text dy="15" style="font-size:8px;" x="422" y="362.0">left</text><rect fill="#9999aa" height="20" stroke="grey" width="68" x="490" y="362.0" /><text dy="15" style="font-size:8px;" x="490" y="362.0">right</text><rect fill="rgb(82%,78%,72%)" height="403.0" stroke="black" width="180" x="600" y="150.0" /><text dy="15" style="font-size:12px;" x="600" y="150.0">RangeGen (node3)</text><text dy="27" style="font-size:12px;" x="600" y="150.0" /><rect fill="#aa9999" height="20" stroke="grey" width="88" x="602" y="531.0" /><text dy="15" style="font-size:8px;" x="602" y="531.0">i</text><rect fill="#aa9999" height="20" stroke="grey" width="88" x="690" y="531.0" /><text dy="15" style="font-size:8px;" x="690" y="531.0">i_index</text><rect fill="#9999aa" height="20" stroke="grey" width="176" x="602" y="185.0" /><text dy="15" style="font-size:8px;" x="602" y="185.0">M</text><rect fill="rgb(73%,74%,70%)" height="82.0" stroke="black" width="140" x="620" y="429.0" /><text dy="15" style="font-size:12px;" x="620" y="429.0">Scatter (node2)</text><text dy="27" style="font-size:12px;" x="620" y="429.0" /><rect fill="#aa9999" height="20" stroke="grey" width="68" x="622" y="489.0" /><text dy="15" style="font-size:8px;" x="622" y="489.0">element</text><rect fill="#aa9999" height="20" stroke="grey" width="68" x="690" y="489.0" /><text dy="15" style="font-size:8px;" x="690" y="489.0">index</text><rect fill="#9999aa" height="20" stroke="grey" width="136" x="622" y="464.0" /><text dy="15" style="font-size:8px;" x="622" y="464.0">input</text><rect fill="rgb(84%,80%,70%)" height="82.0" stroke="black" width="140" x="620" y="327.0" /><text dy="15" style="font-size:12px;" x="620" y="327.0">Range (node1)</text><text dy="27" style="font-size:12px;" x="620" y="327.0" /><rect fill="#aa9999" height="20" stroke="grey" width="136" x="622" y="387.0" /><text dy="15" style="font-size:8px;" x="622" y="387.0">range output</text><rect fill="#9999aa" height="20" stroke="grey" width="68" x="622" y="362.0" /><text dy="15" style="font-size:8px;" x="622" y="362.0">left boundary</text><rect fill="#9999aa" height="20" stroke="grey" width="68" x="690" y="362.0" /><text dy="15" style="font-size:8px;" x="690" y="362.0">right boundary</text><rect fill="rgb(79%,76%,70%)" height="82.0" stroke="black" width="140" x="620" y="225.0" /><text dy="15" style="font-size:12px;" x="620" y="225.0">Literal (node0)</text><text dy="27" style="font-size:12px;" x="620" y="225.0">value: 1</text><rect fill="#aa9999" height="20" stroke="grey" width="136" x="622" y="285.0" /><rect fill="rgb(83%,71%,81%)" height="403.0" stroke="black" width="340" x="800" y="150.0" /><text dy="15" style="font-size:12px;" x="800" y="150.0">Returns (node14)</text><text dy="27" style="font-size:12px;" x="800" y="150.0" /><rect fill="#aa9999" height="20" stroke="grey" width="336" x="802" y="531.0" /><text dy="15" style="font-size:8px;" x="802" y="531.0">reduction_0</text><rect fill="#9999aa" height="20" stroke="grey" width="56" x="802" y="185.0" /><text dy="15" style="font-size:8px;" x="802" y="185.0">R</text><rect fill="#9999aa" height="20" stroke="grey" width="56" x="858" y="185.0" /><text dy="15" style="font-size:8px;" x="858" y="185.0">S</text><rect fill="#9999aa" height="20" stroke="grey" width="56" x="914" y="185.0" /><text dy="15" style="font-size:8px;" x="914" y="185.0">i</text><rect fill="#9999aa" height="20" stroke="grey" width="56" x="970" y="185.0" /><text dy="15" style="font-size:8px;" x="970" y="185.0">i_index</text><rect fill="#9999aa" height="20" stroke="grey" width="56" x="1026" y="185.0" /><text dy="15" style="font-size:8px;" x="1026" y="185.0">z</text><rect fill="#9999aa" height="20" stroke="grey" width="56" x="1082" y="185.0" /><text dy="15" style="font-size:8px;" x="1082" y="185.0">M</text><rect fill="rgb(80%,70%,75%)" height="82.0" stroke="black" width="140" x="820" y="429.0" /><text dy="15" style="font-size:12px;" x="820" y="429.0">Reduction (node13)</text><text dy="27" style="font-size:12px;" x="820" y="429.0">operator: sum</text><rect fill="#aa9999" height="20" stroke="grey" width="136" x="822" y="489.0" /><text dy="15" style="font-size:8px;" x="822" y="489.0">reduction output</text><rect fill="#9999aa" height="20" stroke="grey" width="68" x="822" y="464.0" /><text dy="15" style="font-size:8px;" x="822" y="464.0">cond input</text><rect fill="#9999aa" height="20" stroke="grey" width="68" x="890" y="464.0" /><text dy="15" style="font-size:8px;" x="890" y="464.0">value input</text><rect fill="rgb(77%,70%,84%)" height="82.0" stroke="black" width="140" x="820" y="327.0" /><text dy="15" style="font-size:12px;" x="820" y="327.0">Binary (node11)</text><text dy="27" style="font-size:12px;" x="820" y="327.0">operator: &gt;</text><rect fill="#aa9999" height="20" stroke="grey" width="136" x="822" y="387.0" /><text dy="15" style="font-size:8px;" x="822" y="387.0">binary output (&gt;)</text><rect fill="#9999aa" height="20" stroke="grey" width="68" x="822" y="362.0" /><text dy="15" style="font-size:8px;" x="822" y="362.0">left</text><rect fill="#9999aa" height="20" stroke="grey" width="68" x="890" y="362.0" /><text dy="15" style="font-size:8px;" x="890" y="362.0">right</text><rect fill="rgb(84%,84%,77%)" height="82.0" stroke="black" width="140" x="980" y="327.0" /><text dy="15" style="font-size:12px;" x="980" y="327.0">Binary (node10)</text><text dy="27" style="font-size:12px;" x="980" y="327.0">operator: -</text><rect fill="#aa9999" height="20" stroke="grey" width="136" x="982" y="387.0" /><text dy="15" style="font-size:8px;" x="982" y="387.0">binary output (-)</text><rect fill="#9999aa" height="20" stroke="grey" width="68" x="982" y="362.0" /><text dy="15" style="font-size:8px;" x="982" y="362.0">left</text><rect fill="#9999aa" height="20" stroke="grey" width="68" x="1050" y="362.0" /><text dy="15" style="font-size:8px;" x="1050" y="362.0">right</text><rect fill="rgb(83%,74%,69%)" height="82.0" stroke="black" width="140" x="820" y="225.0" /><text dy="15" style="font-size:12px;" x="820" y="225.0">Literal (node12)</text><text dy="27" style="font-size:12px;" x="820" y="225.0">value: 1</text><rect fill="#aa9999" height="20" stroke="grey" width="136" x="822" y="285.0" /><line fill="none" marker-end="url(#id1)" stroke="#222222" x1="130.0" x2="96.0" y1="205.0" y2="362.0" /><line fill="none" marker-end="url(#id1)" stroke="#222222" x1="130.0" x2="164.0" y1="305.0" y2="362.0" /><line fill="none" marker-end="url(#id1)" stroke="#222222" x1="130.0" x2="130.0" y1="407.0" y2="429.0" /><line fill="none" marker-end="url(#id1)" stroke="#222222" x1="690.0" x2="656.0" y1="305.0" y2="362.0" /><line fill="none" marker-end="url(#id1)" stroke="#222222" x1="690.0" x2="724.0" y1="205.0" y2="362.0" /><line fill="none" marker-end="url(#id1)" stroke="#222222" x1="690.0" x2="690.0" y1="407.0" y2="464.0" /><line fill="none" marker-end="url(#id1)" stroke="#222222" x1="656.0" x2="646.0" y1="509.0" y2="531.0" /><line fill="none" marker-end="url(#id1)" stroke="#222222" x1="724.0" x2="734.0" y1="509.0" y2="531.0" /><line fill="none" marker-end="url(#id1)" stroke="#222222" x1="284.0" x2="296.0" y1="205.0" y2="362.0" /><line fill="none" marker-end="url(#id1)" stroke="#222222" x1="452.0" x2="364.0" y1="205.0" y2="362.0" /><line fill="none" marker-end="url(#id1)" stroke="#222222" x1="330.0" x2="326.0" y1="407.0" y2="429.0" /><line fill="none" marker-end="url(#id1)" stroke="#222222" x1="284.0" x2="456.0" y1="205.0" y2="362.0" /><line fill="none" marker-end="url(#id1)" stroke="#222222" x1="330.0" x2="524.0" y1="407.0" y2="362.0" /><line fill="none" marker-end="url(#id1)" stroke="#222222" x1="490.0" x2="494.0" y1="407.0" y2="429.0" /><line fill="none" marker-end="url(#id1)" stroke="#222222" x1="830.0" x2="1016.0" y1="205.0" y2="362.0" /><line fill="none" marker-end="url(#id1)" stroke="#222222" x1="886.0" x2="1084.0" y1="205.0" y2="362.0" /><line fill="none" marker-end="url(#id1)" stroke="#222222" x1="1050.0" x2="924.0" y1="407.0" y2="464.0" /><line fill="none" marker-end="url(#id1)" stroke="#222222" x1="830.0" x2="856.0" y1="205.0" y2="362.0" /><line fill="none" marker-end="url(#id1)" stroke="#222222" x1="890.0" x2="924.0" y1="305.0" y2="362.0" /><line fill="none" marker-end="url(#id1)" stroke="#222222" x1="890.0" x2="856.0" y1="407.0" y2="464.0" /><line fill="none" marker-end="url(#id1)" stroke="#222222" x1="890.0" x2="970.0" y1="509.0" y2="531.0" /><line fill="none" marker-end="url(#id1)" stroke="#222222" x1="590.0" x2="590.0" y1="593.0" y2="615.0" /><line fill="none" marker-end="url(#id1)" stroke="#222222" x1="590.0" x2="590.0" y1="55.0" y2="110.0" /></svg>
