<svg baseProfile="full" height="637.0" version="1.1" width="620" xmlns="http://www.w3.org/2000/svg" xmlns:ev="http://www.w3.org/2001/xml-events" xmlns:xlink="http://www.w3.org/1999/xlink"><defs><marker id="id1" markerHeight="15" markerWidth="15" orient="auto" refX="0" refY="0" viewBox="-5 -5 10 10"><polygon fill="#222222" points="5,0 0,2 0,-2" /></marker></defs><rect fill="rgb(73%,77%,78%)" height="637.0" stroke="black" width="620" x="0" y="0" /><text dy="15" style="font-size:12px;" x="0" y="0">main (node8)</text><text dy="27" style="font-size:12px;" x="0" y="0" /><rect fill="#aa9999" height="20" stroke="grey" width="616" x="2" y="615.0" /><rect fill="#9999aa" height="20" stroke="grey" width="616" x="2" y="35.0" /><text dy="15" style="font-size:8px;" x="2" y="35.0">S</text><rect fill="rgb(84%,73%,71%)" height="520.0" stroke="black" width="580" x="20" y="75.0" /><text dy="15" style="font-size:12px;" x="20" y="75.0">LoopExpression (node7)</text><text dy="27" style="font-size:12px;" x="20" y="75.0" /><rect fill="#aa9999" height="20" stroke="grey" width="576" x="22" y="573.0" /><text dy="15" style="font-size:8px;" x="22" y="573.0">reduction_0</text><rect fill="#9999aa" height="20" stroke="grey" width="576" x="22" y="110.0" /><text dy="15" style="font-size:8px;" x="22" y="110.0">S</text><rect fill="rgb(69%,83%,81%)" height="403.0" stroke="black" width="340" x="40" y="150.0" /><text dy="15" style="font-size:12px;" x="40" y="150.0">RangeGen (node4)</text><text dy="27" style="font-size:12px;" x="40" y="150.0" /><rect fill="#aa9999" height="20" stroke="grey" width="168" x="42" y="531.0" /><text dy="15" style="font-size:8px;" x="42" y="531.0">i</text><rect fill="#aa9999" height="20" stroke="grey" width="168" x="210" y="531.0" /><text dy="15" style="font-size:8px;" x="210" y="531.0">i_index</text><rect fill="#9999aa" height="20" stroke="grey" width="336" x="42" y="185.0" /><text dy="15" style="font-size:8px;" x="42" y="185.0">S</text><rect fill="rgb(72%,80%,72%)" height="82.0" stroke="black" width="140" x="60" y="429.0" /><text dy="15" style="font-size:12px;" x="60" y="429.0">Scatter (node3)</text><text dy="27" style="font-size:12px;" x="60" y="429.0" /><rect fill="#aa9999" height="20" stroke="grey" width="68" x="62" y="489.0" /><text dy="15" style="font-size:8px;" x="62" y="489.0">element</text><rect fill="#aa9999" height="20" stroke="grey" width="68" x="130" y="489.0" /><text dy="15" style="font-size:8px;" x="130" y="489.0">index</text><rect fill="#9999aa" height="20" stroke="grey" width="136" x="62" y="464.0" /><text dy="15" style="font-size:8px;" x="62" y="464.0">input</text><rect fill="rgb(77%,80%,74%)" height="82.0" stroke="black" width="140" x="60" y="327.0" /><text dy="15" style="font-size:12px;" x="60" y="327.0">Range (node2)</text><text dy="27" style="font-size:12px;" x="60" y="327.0" /><rect fill="#aa9999" height="20" stroke="grey" width="136" x="62" y="387.0" /><text dy="15" style="font-size:8px;" x="62" y="387.0">range output</text><rect fill="#9999aa" height="20" stroke="grey" width="68" x="62" y="362.0" /><text dy="15" style="font-size:8px;" x="62" y="362.0">left boundary</text><rect fill="#9999aa" height="20" stroke="grey" width="68" x="130" y="362.0" /><text dy="15" style="font-size:8px;" x="130" y="362.0">right boundary</text><rect fill="rgb(79%,80%,71%)" height="82.0" stroke="black" width="140" x="60" y="225.0" /><text dy="15" style="font-size:12px;" x="60" y="225.0">Literal (node0)</text><text dy="27" style="font-size:12px;" x="60" y="225.0">value: 1</text><rect fill="#aa9999" height="20" stroke="grey" width="136" x="62" y="285.0" /><rect fill="rgb(82%,75%,82%)" height="82.0" stroke="black" width="140" x="220" y="225.0" /><text dy="15" style="font-size:12px;" x="220" y="225.0">Literal (node1)</text><text dy="27" style="font-size:12px;" x="220" y="225.0">value: 10</text><rect fill="#aa9999" height="20" stroke="grey" width="136" x="222" y="285.0" /><rect fill="rgb(71%,69%,80%)" height="301.0" stroke="black" width="180" x="400" y="150.0" /><text dy="15" style="font-size:12px;" x="400" y="150.0">Returns (node6)</text><text dy="27" style="font-size:12px;" x="400" y="150.0" /><rect fill="#aa9999" height="20" stroke="grey" width="176" x="402" y="429.0" /><text dy="15" style="font-size:8px;" x="402" y="429.0">reduction_0</text><rect fill="#9999aa" height="20" stroke="grey" width="58" x="402" y="185.0" /><text dy="15" style="font-size:8px;" x="402" y="185.0">i</text><rect fill="#9999aa" height="20" stroke="grey" width="58" x="460" y="185.0" /><text dy="15" style="font-size:8px;" x="460" y="185.0">i_index</text><rect fill="#9999aa" height="20" stroke="grey" width="58" x="518" y="185.0" /><text dy="15" style="font-size:8px;" x="518" y="185.0">S</text><rect fill="rgb(70%,69%,72%)" height="82.0" stroke="black" width="140" x="420" y="327.0" /><text dy="15" style="font-size:12px;" x="420" y="327.0">Reduction (node5)</text><text dy="27" style="font-size:12px;" x="420" y="327.0">operator: array</text><rect fill="#aa9999" height="20" stroke="grey" width="136" x="422" y="387.0" /><text dy="15" style="font-size:8px;" x="422" y="387.0">reduction output</text><rect fill="#9999aa" height="20" stroke="grey" width="68" x="422" y="362.0" /><text dy="15" style="font-size:8px;" x="422" y="362.0">cond input</text><rect fill="#9999aa" height="20" stroke="grey" width="68" x="490" y="362.0" /><text dy="15" style="font-size:8px;" x="490" y="362.0">value input</text><rect fill="rgb(75%,72%,75%)" height="82.0" stroke="black" width="140" x="420" y="225.0" /><text dy="15" style="font-size:12px;" x="420" y="225.0">Literal (node9)</text><text dy="27" style="font-size:12px;" x="420" y="225.0">value: True</text><rect fill="#aa9999" height="20" stroke="grey" width="136" x="422" y="285.0" /><line fill="none" marker-end="url(#id1)" stroke="#222222" x1="130.0" x2="96.0" y1="305.0" y2="362.0" /><line fill="none" marker-end="url(#id1)" stroke="#222222" x1="290.0" x2="164.0" y1="305.0" y2="362.0" /><line fill="none" marker-end="url(#id1)" stroke="#222222" x1="130.0" x2="130.0" y1="407.0" y2="464.0" /><line fill="none" marker-end="url(#id1)" stroke="#222222" x1="96.0" x2="126.0" y1="509.0" y2="531.0" /><line fill="none" marker-end="url(#id1)" stroke="#222222" x1="164.0" x2="294.0" y1="509.0" y2="531.0" /><line fill="none" marker-end="url(#id1)" stroke="#222222" x1="431.0" x2="524.0" y1="205.0" y2="362.0" /><line fill="none" marker-end="url(#id1)" stroke="#222222" x1="490.0" x2="456.0" y1="305.0" y2="362.0" /><line fill="none" marker-end="url(#id1)" stroke="#222222" x1="490.0" x2="490.0" y1="407.0" y2="429.0" /><line fill="none" marker-end="url(#id1)" stroke="#222222" x1="310.0" x2="310.0" y1="593.0" y2="615.0" /><line fill="none" marker-end="url(#id1)" stroke="#222222" x1="310.0" x2="310.0" y1="55.0" y2="110.0" /></svg>
